STARTFONT 2.1
FONT -FontForge-Monofett-Book-R-Normal--20-200-72-72-P-114-ISO10646-1
SIZE 20 72 72
FONTBOUNDINGBOX 13 23 0 -3
COMMENT "Generated by fontforge, http://fontforge.sourceforge.net"
COMMENT "Copyright (c) 2011 by vernon adams. All rights reserved."
STARTPROPERTIES 40
FOUNDRY "FontForge"
FAMILY_NAME "Monofett"
WEIGHT_NAME "Book"
SLANT "R"
SETWIDTH_NAME "Normal"
ADD_STYLE_NAME ""
PIXEL_SIZE 20
POINT_SIZE 200
RESOLUTION_X 72
RESOLUTION_Y 72
SPACING "P"
AVERAGE_WIDTH 114
CHARSET_REGISTRY "ISO10646"
CHARSET_ENCODING "1"
FONTNAME_REGISTRY ""
CHARSET_COLLECTIONS "ISO8859-2 ISO8859-9 ISO8859-4 ISO10646-1"
FONT_NAME "Monofett"
FACE_NAME "Monofett"
COPYRIGHT "Copyright (c) 2011 by vernon adams. All rights reserved."
FONT_VERSION "1.000"
FONT_ASCENT 16
FONT_DESCENT 4
UNDERLINE_POSITION -3
UNDERLINE_THICKNESS 1
X_HEIGHT 12
CAP_HEIGHT 12
RAW_ASCENT 799
RAW_DESCENT 200
NORM_SPACE 3
RELATIVE_WEIGHT 40
RELATIVE_SETWIDTH 50
SUPERSCRIPT_X 0
SUPERSCRIPT_Y 9
SUPERSCRIPT_SIZE 12
SUBSCRIPT_X 0
SUBSCRIPT_Y 2
SUBSCRIPT_SIZE 12
FIGURE_WIDTH 12
AVG_LOWERCASE_WIDTH 120
AVG_UPPERCASE_WIDTH 120
ENDPROPERTIES
CHARS 409
STARTCHAR uni000D
ENCODING 13
SWIDTH 144 0
DWIDTH 3 0
BBX 1 1 0 0
BITMAP
00
ENDCHAR
STARTCHAR space
ENCODING 32
SWIDTH 144 0
DWIDTH 3 0
BBX 1 1 0 0
BITMAP
00
ENDCHAR
STARTCHAR exclam
ENCODING 33
SWIDTH 424 0
DWIDTH 8 0
BBX 9 13 0 0
BITMAP
7E00
F700
F700
F780
F780
F780
F780
FF80
F780
FF80
FF00
7F00
3C00
ENDCHAR
STARTCHAR quotedbl
ENCODING 34
SWIDTH 424 0
DWIDTH 8 0
BBX 9 13 0 0
BITMAP
7E00
EB00
EB00
FF80
FF80
FF80
FF80
FF80
FF80
FF80
FF00
7F00
3C00
ENDCHAR
STARTCHAR numbersign
ENCODING 35
SWIDTH 482 0
DWIDTH 10 0
BBX 10 13 0 0
BITMAP
7F00
F580
F5C0
F1C0
EBC0
EBC0
E1C0
EBC0
FFC0
FFC0
FF80
7F80
3F00
ENDCHAR
STARTCHAR dollar
ENCODING 36
SWIDTH 578 0
DWIDTH 12 0
BBX 12 13 0 0
BITMAP
7FC0
F0E0
EF70
EFF0
E1F0
FE70
FF70
E670
F0F0
FFF0
FFE0
7FE0
3FC0
ENDCHAR
STARTCHAR percent
ENCODING 37
SWIDTH 578 0
DWIDTH 12 0
BBX 12 13 0 0
BITMAP
7FC0
C5E0
D5F0
C5F0
FBF0
FA30
FAB0
F230
FFF0
FFF0
FFE0
7FE0
3FC0
ENDCHAR
STARTCHAR ampersand
ENCODING 38
SWIDTH 578 0
DWIDTH 12 0
BBX 12 13 0 0
BITMAP
7FC0
F0E0
F7F0
F770
F870
F770
F770
F670
F8F0
FFF0
FFE0
7FE0
3FC0
ENDCHAR
STARTCHAR quotesingle
ENCODING 39
SWIDTH 424 0
DWIDTH 8 0
BBX 9 13 0 0
BITMAP
7E00
F700
F700
FF80
FF80
FF80
FF80
FF80
FF80
FF80
FF00
7F00
3C00
ENDCHAR
STARTCHAR parenleft
ENCODING 40
SWIDTH 483 0
DWIDTH 10 0
BBX 10 13 0 0
BITMAP
7F00
E380
EFC0
EFC0
EFC0
EFC0
EFC0
EFC0
EFC0
F3C0
FFC0
7F80
3F00
ENDCHAR
STARTCHAR parenright
ENCODING 41
SWIDTH 483 0
DWIDTH 10 0
BBX 10 13 0 0
BITMAP
7F00
F380
FBC0
FBC0
FBC0
FBC0
FBC0
FBC0
FBC0
F3C0
FFC0
7F80
3F00
ENDCHAR
STARTCHAR asterisk
ENCODING 42
SWIDTH 428 0
DWIDTH 9 0
BBX 9 13 0 0
BITMAP
7E00
EB00
D180
F380
EB80
FF80
FF80
FF80
FF80
FF80
FF00
7F00
3E00
ENDCHAR
STARTCHAR plus
ENCODING 43
SWIDTH 428 0
DWIDTH 9 0
BBX 9 13 0 0
BITMAP
7E00
F700
C180
F780
F780
FF80
FF80
FF80
FF80
FF80
FF00
7F00
3E00
ENDCHAR
STARTCHAR comma
ENCODING 44
SWIDTH 428 0
DWIDTH 9 0
BBX 9 13 0 0
BITMAP
7E00
FF00
FF80
FF80
FF80
FF80
FF80
F780
F780
F780
FF00
7F00
3E00
ENDCHAR
STARTCHAR hyphen
ENCODING 45
SWIDTH 428 0
DWIDTH 9 0
BBX 9 13 0 0
BITMAP
7E00
FF00
FF80
C380
FF80
FF80
FF80
FF80
FF80
FF80
FF00
7F00
3E00
ENDCHAR
STARTCHAR period
ENCODING 46
SWIDTH 428 0
DWIDTH 9 0
BBX 9 13 0 0
BITMAP
7E00
FF00
FF80
FF80
FF80
FF80
FF80
F780
F780
FF80
FF00
7F00
3E00
ENDCHAR
STARTCHAR slash
ENCODING 47
SWIDTH 428 0
DWIDTH 9 0
BBX 9 13 0 0
BITMAP
7E00
F700
F780
F780
F780
F780
E780
EF80
EF80
FF80
FF00
7F00
3E00
ENDCHAR
STARTCHAR zero
ENCODING 48
SWIDTH 578 0
DWIDTH 12 0
BBX 12 13 0 0
BITMAP
7FC0
E060
EF70
EF70
EF70
EF70
EF70
E770
F0F0
FFF0
FFE0
7FE0
3FC0
ENDCHAR
STARTCHAR one
ENCODING 49
SWIDTH 578 0
DWIDTH 12 0
BBX 12 13 0 0
BITMAP
7FC0
F1E0
FDF0
FDF0
FDF0
FDF0
FDF0
FDF0
FDF0
FFF0
FFE0
7FE0
3FC0
ENDCHAR
STARTCHAR two
ENCODING 50
SWIDTH 578 0
DWIDTH 12 0
BBX 12 13 0 0
BITMAP
7FC0
E060
FF70
FF70
F070
EFF0
EFF0
EFF0
F070
FFF0
FFE0
7FE0
3FC0
ENDCHAR
STARTCHAR three
ENCODING 51
SWIDTH 578 0
DWIDTH 12 0
BBX 12 13 0 0
BITMAP
7FC0
E060
FF70
FF70
F070
FF70
FF70
EF70
F0F0
FFF0
FFE0
7FE0
3FC0
ENDCHAR
STARTCHAR four
ENCODING 52
SWIDTH 578 0
DWIDTH 12 0
BBX 12 13 0 0
BITMAP
7FC0
F6E0
F6F0
F6F0
F6F0
F6F0
F070
FEF0
FEF0
FFF0
FFE0
7FE0
3FC0
ENDCHAR
STARTCHAR five
ENCODING 53
SWIDTH 578 0
DWIDTH 12 0
BBX 12 13 0 0
BITMAP
7FC0
E060
EFF0
EFF0
E070
FF70
FF70
E770
F0F0
FFF0
FFE0
7FE0
3FC0
ENDCHAR
STARTCHAR six
ENCODING 54
SWIDTH 578 0
DWIDTH 12 0
BBX 12 13 0 0
BITMAP
7FC0
E060
EFF0
EFF0
E070
EF70
EF70
E770
F0F0
FFF0
FFE0
7FE0
3FC0
ENDCHAR
STARTCHAR seven
ENCODING 55
SWIDTH 578 0
DWIDTH 12 0
BBX 12 13 0 0
BITMAP
7FC0
F0E0
FEF0
FCF0
FDF0
FDF0
F9F0
FBF0
FBF0
FFF0
FFE0
7FE0
3FC0
ENDCHAR
STARTCHAR eight
ENCODING 56
SWIDTH 578 0
DWIDTH 12 0
BBX 12 13 0 0
BITMAP
7FC0
E060
EF70
EF70
E070
EF70
EF70
E770
F0F0
FFF0
FFE0
7FE0
3FC0
ENDCHAR
STARTCHAR nine
ENCODING 57
SWIDTH 578 0
DWIDTH 12 0
BBX 12 13 0 0
BITMAP
7FC0
E060
EF70
EF70
E070
FF70
FF70
F070
F0F0
FFF0
FFE0
7FE0
3FC0
ENDCHAR
STARTCHAR colon
ENCODING 58
SWIDTH 428 0
DWIDTH 9 0
BBX 9 13 0 0
BITMAP
7E00
FF00
FF80
FF80
FF80
F780
FF80
F780
F780
FF80
FF00
7F00
3E00
ENDCHAR
STARTCHAR semicolon
ENCODING 59
SWIDTH 428 0
DWIDTH 9 0
BBX 9 13 0 0
BITMAP
7E00
FF00
FF80
FF80
FF80
F780
FF80
F780
F780
F780
FF00
7F00
3E00
ENDCHAR
STARTCHAR less
ENCODING 60
SWIDTH 482 0
DWIDTH 10 0
BBX 10 14 0 1
BITMAP
3F00
7F80
FF80
FFC0
FBC0
F7C0
EFC0
FFC0
FFC0
FFC0
FBC0
FF80
7F80
3F00
ENDCHAR
STARTCHAR equal
ENCODING 61
SWIDTH 482 0
DWIDTH 10 0
BBX 10 14 0 1
BITMAP
3F00
7F80
FF80
FFC0
FFC0
FFC0
FFC0
FFC0
FFC0
FFC0
FFC0
FF80
7F80
3F00
ENDCHAR
STARTCHAR greater
ENCODING 62
SWIDTH 482 0
DWIDTH 10 0
BBX 10 14 0 1
BITMAP
3F00
7F80
FF80
FFC0
F7C0
FBC0
FDC0
FDC0
FBC0
F7C0
EFC0
FF80
7F80
3F00
ENDCHAR
STARTCHAR question
ENCODING 63
SWIDTH 578 0
DWIDTH 12 0
BBX 12 13 0 0
BITMAP
7FC0
F360
FF70
FF70
FC70
FDF0
FDF0
FFF0
FFF0
FFF0
FFE0
7FE0
3FC0
ENDCHAR
STARTCHAR at
ENCODING 64
SWIDTH 578 0
DWIDTH 12 0
BBX 12 13 0 0
BITMAP
7FC0
CF60
D9B0
DEB0
DEB0
D6B0
D6B0
DF30
CFF0
F3F0
FFE0
7FE0
3FC0
ENDCHAR
STARTCHAR A
ENCODING 65
SWIDTH 578 0
DWIDTH 12 0
BBX 12 13 0 0
BITMAP
7FC0
F060
F770
E770
EF70
E070
EF70
EF70
EF70
FFF0
FFE0
7FE0
3FC0
ENDCHAR
STARTCHAR B
ENCODING 66
SWIDTH 578 0
DWIDTH 12 0
BBX 12 13 0 0
BITMAP
7FC0
E060
EF70
EF70
E0F0
EF70
EF70
EE70
E0F0
FFF0
FFE0
7FE0
3FC0
ENDCHAR
STARTCHAR C
ENCODING 67
SWIDTH 578 0
DWIDTH 12 0
BBX 12 13 0 0
BITMAP
7FC0
E0E0
EFF0
EFF0
EFF0
EFF0
EFF0
E6F0
F0F0
FFF0
FFE0
7FE0
3FC0
ENDCHAR
STARTCHAR D
ENCODING 68
SWIDTH 578 0
DWIDTH 12 0
BBX 12 13 0 0
BITMAP
7FC0
E060
EF70
EF70
EF70
EF70
EF70
EF70
E0F0
FFF0
FFE0
7FE0
3FC0
ENDCHAR
STARTCHAR E
ENCODING 69
SWIDTH 578 0
DWIDTH 12 0
BBX 12 13 0 0
BITMAP
7FC0
F060
F7F0
F7F0
F0F0
F7F0
F7F0
F7F0
F070
FFF0
FFE0
7FE0
3FC0
ENDCHAR
STARTCHAR F
ENCODING 70
SWIDTH 578 0
DWIDTH 12 0
BBX 12 13 0 0
BITMAP
7FC0
F060
F7F0
F7F0
F0F0
F7F0
F7F0
F7F0
F7F0
FFF0
FFE0
7FE0
3FC0
ENDCHAR
STARTCHAR G
ENCODING 71
SWIDTH 578 0
DWIDTH 12 0
BBX 12 13 0 0
BITMAP
7FC0
E060
EFF0
EFF0
EC70
EF70
EF70
E770
F0F0
FFF0
FFE0
7FE0
3FC0
ENDCHAR
STARTCHAR H
ENCODING 72
SWIDTH 578 0
DWIDTH 12 0
BBX 12 13 0 0
BITMAP
7FC0
EF60
EF70
EF70
E070
EF70
EF70
EF70
EF70
FFF0
FFE0
7FE0
3FC0
ENDCHAR
STARTCHAR I
ENCODING 73
SWIDTH 578 0
DWIDTH 12 0
BBX 12 13 0 0
BITMAP
7FC0
F060
FDF0
FDF0
FDF0
FDF0
FDF0
FDF0
F070
FFF0
FFE0
7FE0
3FC0
ENDCHAR
STARTCHAR J
ENCODING 74
SWIDTH 578 0
DWIDTH 12 0
BBX 12 13 0 0
BITMAP
7FC0
FEE0
FEF0
FEF0
FEF0
FEF0
FEF0
FCF0
F3F0
FFF0
FFE0
7FE0
3FC0
ENDCHAR
STARTCHAR K
ENCODING 75
SWIDTH 578 0
DWIDTH 12 0
BBX 12 13 0 0
BITMAP
7FC0
F760
F6F0
F5F0
F3F0
F5F0
F6F0
F770
F7F0
FFF0
FFE0
7FE0
3FC0
ENDCHAR
STARTCHAR L
ENCODING 76
SWIDTH 578 0
DWIDTH 12 0
BBX 12 13 0 0
BITMAP
7FC0
F7E0
F7F0
F7F0
F7F0
F7F0
F7F0
F7F0
F0F0
FFF0
FFE0
7FE0
3FC0
ENDCHAR
STARTCHAR M
ENCODING 77
SWIDTH 578 0
DWIDTH 12 0
BBX 12 13 0 0
BITMAP
7FC0
E020
EDB0
EDB0
EDB0
EDB0
EFB0
EFB0
EFB0
FFF0
FFE0
7FE0
3FC0
ENDCHAR
STARTCHAR N
ENCODING 78
SWIDTH 578 0
DWIDTH 12 0
BBX 12 13 0 0
BITMAP
7FC0
E060
EF70
EF70
EF70
EF70
EF70
EF70
EF70
FFF0
FFE0
7FE0
3FC0
ENDCHAR
STARTCHAR O
ENCODING 79
SWIDTH 578 0
DWIDTH 12 0
BBX 12 13 0 0
BITMAP
7FC0
E060
EF70
EF70
EF70
EF70
EF70
E770
F0F0
FFF0
FFE0
7FE0
3FC0
ENDCHAR
STARTCHAR P
ENCODING 80
SWIDTH 578 0
DWIDTH 12 0
BBX 12 13 0 0
BITMAP
7FC0
F060
F770
F770
F770
F0F0
F7F0
F7F0
F7F0
FFF0
FFE0
7FE0
3FC0
ENDCHAR
STARTCHAR Q
ENCODING 81
SWIDTH 578 0
DWIDTH 12 0
BBX 12 13 0 0
BITMAP
7FC0
E060
EF70
EF70
EF70
EF70
EF70
E570
F0F0
FEF0
FFE0
7FE0
3FC0
ENDCHAR
STARTCHAR R
ENCODING 82
SWIDTH 578 0
DWIDTH 12 0
BBX 12 13 0 0
BITMAP
7FC0
E060
EF70
EF70
E1F0
EE70
EF70
EF70
EF70
FFF0
FFE0
7FE0
3FC0
ENDCHAR
STARTCHAR S
ENCODING 83
SWIDTH 578 0
DWIDTH 12 0
BBX 12 13 0 0
BITMAP
7FC0
E060
EFF0
EFF0
F070
FF70
FF70
F770
F0F0
FFF0
FFE0
7FE0
3FC0
ENDCHAR
STARTCHAR T
ENCODING 84
SWIDTH 578 0
DWIDTH 12 0
BBX 12 13 0 0
BITMAP
7FC0
F060
FDF0
FDF0
FDF0
FDF0
FDF0
FDF0
FDF0
FFF0
FFE0
7FE0
3FC0
ENDCHAR
STARTCHAR U
ENCODING 85
SWIDTH 578 0
DWIDTH 12 0
BBX 12 13 0 0
BITMAP
7FC0
EF60
EF70
EF70
EF70
EF70
EF70
E770
F0F0
FFF0
FFE0
7FE0
3FC0
ENDCHAR
STARTCHAR V
ENCODING 86
SWIDTH 578 0
DWIDTH 12 0
BBX 12 13 0 0
BITMAP
7FC0
EF60
F770
F670
F6F0
F6F0
FAF0
FBF0
FDF0
FFF0
FFE0
7FE0
3FC0
ENDCHAR
STARTCHAR W
ENCODING 87
SWIDTH 578 0
DWIDTH 12 0
BBX 12 13 0 0
BITMAP
7FC0
D9A0
D9B0
C9B0
EB30
EB70
EB70
EF70
F6F0
FFF0
FFE0
7FE0
3FC0
ENDCHAR
STARTCHAR X
ENCODING 88
SWIDTH 578 0
DWIDTH 12 0
BBX 12 13 0 0
BITMAP
7FC0
F760
F6F0
FAF0
F9F0
FAF0
F6F0
F770
FF70
FFF0
FFE0
7FE0
3FC0
ENDCHAR
STARTCHAR Y
ENCODING 89
SWIDTH 578 0
DWIDTH 12 0
BBX 12 13 0 0
BITMAP
7FC0
F760
F6F0
FAF0
FAF0
F9F0
FDF0
FDF0
FDF0
FFF0
FFE0
7FE0
3FC0
ENDCHAR
STARTCHAR Z
ENCODING 90
SWIDTH 578 0
DWIDTH 12 0
BBX 12 13 0 0
BITMAP
7FC0
F0E0
FEF0
FDF0
F9F0
FBF0
F3F0
F7F0
F070
FFF0
FFE0
7FE0
3FC0
ENDCHAR
STARTCHAR bracketleft
ENCODING 91
SWIDTH 484 0
DWIDTH 10 0
BBX 10 13 0 0
BITMAP
7F00
F780
F7C0
F7C0
F7C0
F7C0
F7C0
F7C0
F7C0
F3C0
FFC0
7F80
3F00
ENDCHAR
STARTCHAR backslash
ENCODING 92
SWIDTH 516 0
DWIDTH 10 0
BBX 10 13 0 0
BITMAP
7F80
F7C0
F3C0
FBC0
FBC0
FBC0
FBC0
FBC0
F9C0
FFC0
FFC0
7FC0
3F00
ENDCHAR
STARTCHAR bracketright
ENCODING 93
SWIDTH 484 0
DWIDTH 10 0
BBX 10 13 0 0
BITMAP
7F00
FB80
FBC0
FBC0
FBC0
FBC0
FBC0
FBC0
FBC0
F3C0
FFC0
7F80
3F00
ENDCHAR
STARTCHAR asciicircum
ENCODING 94
SWIDTH 355 0
DWIDTH 7 0
BBX 7 7 0 5
BITMAP
38
7C
6C
F6
D6
FE
FE
ENDCHAR
STARTCHAR underscore
ENCODING 95
SWIDTH 428 0
DWIDTH 9 0
BBX 9 13 0 0
BITMAP
7E00
FF00
FF80
FF80
FF80
FF80
FF80
FF80
FF80
C180
FF00
7F00
3E00
ENDCHAR
STARTCHAR grave
ENCODING 96
SWIDTH 308 0
DWIDTH 6 0
BBX 6 7 0 0
BITMAP
70
F8
DC
EC
6C
3C
38
ENDCHAR
STARTCHAR a
ENCODING 97
SWIDTH 578 0
DWIDTH 12 0
BBX 12 13 0 0
BITMAP
7FC0
F0E0
FFF0
FFF0
F0F0
EFF0
EFF0
EEF0
F1F0
FFF0
FFE0
7FE0
3FC0
ENDCHAR
STARTCHAR b
ENCODING 98
SWIDTH 578 0
DWIDTH 12 0
BBX 12 13 0 0
BITMAP
7FC0
E060
EF70
EF70
E0F0
EF70
EF70
EE70
E0F0
FFF0
FFE0
7FE0
3FC0
ENDCHAR
STARTCHAR c
ENCODING 99
SWIDTH 578 0
DWIDTH 12 0
BBX 12 13 0 0
BITMAP
7FC0
E0E0
EFF0
EFF0
EFF0
EFF0
EFF0
E6F0
F0F0
FFF0
FFE0
7FE0
3FC0
ENDCHAR
STARTCHAR d
ENCODING 100
SWIDTH 578 0
DWIDTH 12 0
BBX 12 13 0 0
BITMAP
7FC0
E060
EF70
EF70
EF70
EF70
EF70
EF70
E0F0
FFF0
FFE0
7FE0
3FC0
ENDCHAR
STARTCHAR e
ENCODING 101
SWIDTH 578 0
DWIDTH 12 0
BBX 12 13 0 0
BITMAP
7FC0
E0E0
EF70
EF70
E070
EFF0
EFF0
E0F0
FFF0
FFF0
FFE0
7FE0
3FC0
ENDCHAR
STARTCHAR f
ENCODING 102
SWIDTH 578 0
DWIDTH 12 0
BBX 12 13 0 0
BITMAP
7FC0
F060
F7F0
F7F0
F0F0
F7F0
F7F0
F7F0
F7F0
FFF0
FFE0
7FE0
3FC0
ENDCHAR
STARTCHAR g
ENCODING 103
SWIDTH 578 0
DWIDTH 12 0
BBX 12 13 0 0
BITMAP
7FC0
E060
EFF0
EFF0
EC70
EF70
EF70
E770
F0F0
FFF0
FFE0
7FE0
3FC0
ENDCHAR
STARTCHAR h
ENCODING 104
SWIDTH 578 0
DWIDTH 12 0
BBX 12 13 0 0
BITMAP
7FC0
EF60
EF70
EF70
E070
EF70
EF70
EF70
EF70
FFF0
FFE0
7FE0
3FC0
ENDCHAR
STARTCHAR i
ENCODING 105
SWIDTH 578 0
DWIDTH 12 0
BBX 12 13 0 0
BITMAP
7FC0
F060
FDF0
FDF0
FDF0
FDF0
FDF0
FDF0
F070
FFF0
FFE0
7FE0
3FC0
ENDCHAR
STARTCHAR j
ENCODING 106
SWIDTH 578 0
DWIDTH 12 0
BBX 12 13 0 0
BITMAP
7FC0
FEE0
FEF0
FEF0
FEF0
FEF0
FEF0
FCF0
F3F0
FFF0
FFE0
7FE0
3FC0
ENDCHAR
STARTCHAR k
ENCODING 107
SWIDTH 578 0
DWIDTH 12 0
BBX 12 13 0 0
BITMAP
7FC0
F760
F6F0
F5F0
F3F0
F5F0
F6F0
F770
F7F0
FFF0
FFE0
7FE0
3FC0
ENDCHAR
STARTCHAR l
ENCODING 108
SWIDTH 578 0
DWIDTH 12 0
BBX 12 13 0 0
BITMAP
7FC0
F7E0
F7F0
F7F0
F7F0
F7F0
F7F0
F7F0
F0F0
FFF0
FFE0
7FE0
3FC0
ENDCHAR
STARTCHAR m
ENCODING 109
SWIDTH 578 0
DWIDTH 12 0
BBX 12 13 0 0
BITMAP
7FC0
E020
EDB0
EDB0
EDB0
EDB0
EFB0
EFB0
EFB0
FFF0
FFE0
7FE0
3FC0
ENDCHAR
STARTCHAR n
ENCODING 110
SWIDTH 578 0
DWIDTH 12 0
BBX 12 13 0 0
BITMAP
7FC0
E060
EF70
EF70
EF70
EF70
EF70
EF70
EF70
FFF0
FFE0
7FE0
3FC0
ENDCHAR
STARTCHAR o
ENCODING 111
SWIDTH 578 0
DWIDTH 12 0
BBX 12 13 0 0
BITMAP
7FC0
E060
EF70
EF70
EF70
EF70
EF70
E770
F0F0
FFF0
FFE0
7FE0
3FC0
ENDCHAR
STARTCHAR p
ENCODING 112
SWIDTH 578 0
DWIDTH 12 0
BBX 12 13 0 0
BITMAP
7FC0
F060
F770
F770
F770
F0F0
F7F0
F7F0
F7F0
FFF0
FFE0
7FE0
3FC0
ENDCHAR
STARTCHAR q
ENCODING 113
SWIDTH 578 0
DWIDTH 12 0
BBX 12 13 0 0
BITMAP
7FC0
E060
EF70
EF70
EF70
EF70
EF70
E570
F0F0
FEF0
FFE0
7FE0
3FC0
ENDCHAR
STARTCHAR r
ENCODING 114
SWIDTH 578 0
DWIDTH 12 0
BBX 12 13 0 0
BITMAP
7FC0
E060
EF70
EF70
E1F0
EE70
EF70
EF70
EF70
FFF0
FFE0
7FE0
3FC0
ENDCHAR
STARTCHAR s
ENCODING 115
SWIDTH 578 0
DWIDTH 12 0
BBX 12 13 0 0
BITMAP
7FC0
E060
EFF0
EFF0
F070
FF70
FF70
F770
F0F0
FFF0
FFE0
7FE0
3FC0
ENDCHAR
STARTCHAR t
ENCODING 116
SWIDTH 578 0
DWIDTH 12 0
BBX 12 13 0 0
BITMAP
7FC0
F060
FDF0
FDF0
FDF0
FDF0
FDF0
FDF0
FDF0
FFF0
FFE0
7FE0
3FC0
ENDCHAR
STARTCHAR u
ENCODING 117
SWIDTH 578 0
DWIDTH 12 0
BBX 12 13 0 0
BITMAP
7FC0
EF60
EF70
EF70
EF70
EF70
EF70
E770
F0F0
FFF0
FFE0
7FE0
3FC0
ENDCHAR
STARTCHAR v
ENCODING 118
SWIDTH 578 0
DWIDTH 12 0
BBX 12 13 0 0
BITMAP
7FC0
EF60
F770
F670
F6F0
F6F0
FAF0
FBF0
FDF0
FFF0
FFE0
7FE0
3FC0
ENDCHAR
STARTCHAR w
ENCODING 119
SWIDTH 578 0
DWIDTH 12 0
BBX 12 13 0 0
BITMAP
7FC0
D9A0
D9B0
C9B0
EB30
EB70
EB70
EF70
F6F0
FFF0
FFE0
7FE0
3FC0
ENDCHAR
STARTCHAR x
ENCODING 120
SWIDTH 578 0
DWIDTH 12 0
BBX 12 13 0 0
BITMAP
7FC0
F760
F6F0
FAF0
F9F0
FAF0
F6F0
F770
FF70
FFF0
FFE0
7FE0
3FC0
ENDCHAR
STARTCHAR y
ENCODING 121
SWIDTH 578 0
DWIDTH 12 0
BBX 12 13 0 0
BITMAP
7FC0
F760
F6F0
FAF0
FAF0
F9F0
FDF0
FDF0
FDF0
FFF0
FFE0
7FE0
3FC0
ENDCHAR
STARTCHAR z
ENCODING 122
SWIDTH 578 0
DWIDTH 12 0
BBX 12 13 0 0
BITMAP
7FC0
F0E0
FEF0
FDF0
F9F0
FBF0
F3F0
F7F0
F070
FFF0
FFE0
7FE0
3FC0
ENDCHAR
STARTCHAR braceleft
ENCODING 123
SWIDTH 484 0
DWIDTH 10 0
BBX 10 13 0 0
BITMAP
7F00
F780
F7C0
F7C0
CFC0
EFC0
F7C0
F7C0
F7C0
FBC0
FFC0
7F80
3F00
ENDCHAR
STARTCHAR bar
ENCODING 124
SWIDTH 484 0
DWIDTH 10 0
BBX 10 13 0 0
BITMAP
7700
F780
F7C0
F7C0
F7C0
F7C0
F7C0
F7C0
F7C0
FFC0
FFC0
7F80
3F00
ENDCHAR
STARTCHAR braceright
ENCODING 125
SWIDTH 484 0
DWIDTH 10 0
BBX 10 13 0 0
BITMAP
7F00
FB80
FBC0
FBC0
FCC0
F9C0
FBC0
FBC0
FBC0
E7C0
FFC0
7F80
3F00
ENDCHAR
STARTCHAR asciitilde
ENCODING 126
SWIDTH 578 0
DWIDTH 12 0
BBX 12 13 0 0
BITMAP
7FC0
FFE0
FFF0
E170
EEF0
FFF0
FFF0
FFF0
FFF0
FFF0
FFE0
7FE0
3FC0
ENDCHAR
STARTCHAR uni00A0
ENCODING 160
SWIDTH 151 0
DWIDTH 3 0
BBX 1 1 0 0
BITMAP
00
ENDCHAR
STARTCHAR exclamdown
ENCODING 161
SWIDTH 424 0
DWIDTH 8 0
BBX 9 13 0 0
BITMAP
7E00
FF00
F700
F780
F780
F780
F780
F780
F780
FF80
FF00
7F00
3C00
ENDCHAR
STARTCHAR cent
ENCODING 162
SWIDTH 578 0
DWIDTH 12 0
BBX 12 13 0 0
BITMAP
7FC0
F9E0
F6F0
F7F0
F7F0
F7F0
F7F0
F0F0
FFF0
FFF0
FFE0
7FE0
3FC0
ENDCHAR
STARTCHAR sterling
ENCODING 163
SWIDTH 578 0
DWIDTH 12 0
BBX 12 13 0 0
BITMAP
7FC0
F0E0
F6F0
F7F0
E0F0
F7F0
F7F0
F7F0
F0F0
FFF0
FFE0
7FE0
3FC0
ENDCHAR
STARTCHAR currency
ENCODING 164
SWIDTH 578 0
DWIDTH 12 0
BBX 12 13 0 0
BITMAP
7FC0
E060
F7F0
F770
F770
F6F0
EF70
FFF0
FFF0
FFF0
FFE0
7FE0
3FC0
ENDCHAR
STARTCHAR yen
ENCODING 165
SWIDTH 578 0
DWIDTH 12 0
BBX 12 13 0 0
BITMAP
7FC0
E6E0
F6F0
F4F0
FDF0
F0F0
FBF0
FBF0
FBF0
FFF0
FFE0
7FE0
3FC0
ENDCHAR
STARTCHAR brokenbar
ENCODING 166
SWIDTH 484 0
DWIDTH 10 0
BBX 10 13 0 0
BITMAP
7F00
F780
F7C0
F7C0
FFC0
F7C0
F7C0
F7C0
F7C0
FFC0
FFC0
7F80
3F00
ENDCHAR
STARTCHAR section
ENCODING 167
SWIDTH 578 0
DWIDTH 12 0
BBX 12 13 0 0
BITMAP
7FC0
F760
FFF0
F1F0
F6F0
F6F0
F8F0
FFF0
FFF0
F1F0
FFE0
7FE0
3FC0
ENDCHAR
STARTCHAR dieresis
ENCODING 168
SWIDTH 388 0
DWIDTH 8 0
BBX 8 6 0 0
BITMAP
3C
7E
FF
D3
FE
7E
ENDCHAR
STARTCHAR copyright
ENCODING 169
SWIDTH 578 0
DWIDTH 12 0
BBX 12 13 0 0
BITMAP
7FC0
EF60
D0B0
F7F0
B7D0
B7D0
F7F0
D0B0
EF70
F9F0
FFE0
7FE0
3FC0
ENDCHAR
STARTCHAR ordfeminine
ENCODING 170
SWIDTH 578 0
DWIDTH 12 0
BBX 12 13 0 0
BITMAP
7FC0
F0E0
FF70
F970
F070
F770
F0F0
FFF0
FFF0
FFF0
FFE0
7FE0
3FC0
ENDCHAR
STARTCHAR guillemotleft
ENCODING 171
SWIDTH 578 0
DWIDTH 12 0
BBX 12 13 0 0
BITMAP
7FC0
FBE0
FEF0
F5F0
EFF0
EBF0
F5F0
F6F0
FAF0
FFF0
FFE0
7FE0
3FC0
ENDCHAR
STARTCHAR uni00AD
ENCODING 173
SWIDTH 428 0
DWIDTH 9 0
BBX 9 13 0 0
BITMAP
7E00
FF00
FF80
C380
FF80
FF80
FF80
FF80
FF80
FF80
FF00
7F00
3E00
ENDCHAR
STARTCHAR registered
ENCODING 174
SWIDTH 578 0
DWIDTH 12 0
BBX 12 13 0 0
BITMAP
7FC0
EF60
D0B0
F6F0
B6D0
B1D0
F6F0
D6B0
EF70
F9F0
FFE0
7FE0
3FC0
ENDCHAR
STARTCHAR macron
ENCODING 175
SWIDTH 428 0
DWIDTH 9 0
BBX 9 6 0 0
BITMAP
3C00
7F00
FF00
C380
FF00
7F00
ENDCHAR
STARTCHAR degree
ENCODING 176
SWIDTH 428 0
DWIDTH 9 0
BBX 9 13 0 0
BITMAP
7E00
E300
FB80
E380
FF80
FF80
FF80
FF80
FF80
FF80
FF00
7F00
3E00
ENDCHAR
STARTCHAR plusminus
ENCODING 177
SWIDTH 428 0
DWIDTH 9 0
BBX 9 13 0 0
BITMAP
7E00
F700
C180
F780
F780
FF80
C380
FF80
FF80
FF80
FF00
7F00
3E00
ENDCHAR
STARTCHAR uni00B2
ENCODING 178
SWIDTH 578 0
DWIDTH 12 0
BBX 12 13 0 0
BITMAP
7FC0
F0E0
FEF0
F1F0
F7F0
F0F0
FFF0
FFF0
FFF0
FFF0
FFE0
7FE0
3FC0
ENDCHAR
STARTCHAR uni00B3
ENCODING 179
SWIDTH 578 0
DWIDTH 12 0
BBX 12 13 0 0
BITMAP
7FC0
F060
FF70
FEF0
F770
F8F0
FFF0
FFF0
FFF0
FFF0
FFE0
7FE0
3FC0
ENDCHAR
STARTCHAR acute
ENCODING 180
SWIDTH 308 0
DWIDTH 6 0
BBX 6 7 0 0
BITMAP
38
7C
6C
DC
D8
F8
70
ENDCHAR
STARTCHAR uni00B5
ENCODING 181
SWIDTH 578 0
DWIDTH 12 0
BBX 12 13 0 0
BITMAP
7FC0
EF60
EF70
EF70
EF70
EF70
EF70
E670
E8F0
EFF0
FFE0
7FE0
3FC0
ENDCHAR
STARTCHAR paragraph
ENCODING 182
SWIDTH 578 0
DWIDTH 12 0
BBX 12 13 0 0
BITMAP
7FC0
E1E0
E1F0
E1F0
F1F0
FDF0
FDF0
FDF0
FFF0
FFF0
FFE0
7FE0
3FC0
ENDCHAR
STARTCHAR periodcentered
ENCODING 183
SWIDTH 428 0
DWIDTH 9 0
BBX 9 13 0 0
BITMAP
7E00
FF00
FF80
F780
FF80
FF80
FF80
FF80
FF80
FF80
FF00
7F00
3E00
ENDCHAR
STARTCHAR cedilla
ENCODING 184
SWIDTH 101 0
DWIDTH 2 0
BBX 2 3 0 -3
BITMAP
C0
80
C0
ENDCHAR
STARTCHAR uni00B9
ENCODING 185
SWIDTH 578 0
DWIDTH 12 0
BBX 12 13 0 0
BITMAP
7FC0
F1E0
FDF0
FDF0
FDF0
FDF0
FFF0
FFF0
FFF0
FFF0
FFE0
7FE0
3FC0
ENDCHAR
STARTCHAR ordmasculine
ENCODING 186
SWIDTH 578 0
DWIDTH 12 0
BBX 12 13 0 0
BITMAP
7FC0
F060
F770
F770
F770
F770
F070
FFF0
FFF0
FFF0
FFE0
7FE0
3FC0
ENDCHAR
STARTCHAR guillemotright
ENCODING 187
SWIDTH 578 0
DWIDTH 12 0
BBX 12 13 0 0
BITMAP
7FC0
FFE0
F5F0
F6F0
FAF0
FF70
FAF0
F5F0
EFF0
FFF0
FFE0
7FE0
3FC0
ENDCHAR
STARTCHAR onequarter
ENCODING 188
SWIDTH 578 0
DWIDTH 12 0
BBX 12 13 0 0
BITMAP
7FC0
CBE0
EBF0
EBF0
EDB0
EDB0
F5B0
F610
F7B0
FFB0
FFE0
7FE0
3FC0
ENDCHAR
STARTCHAR onehalf
ENCODING 189
SWIDTH 578 0
DWIDTH 12 0
BBX 12 13 0 0
BITMAP
7FC0
CBE0
EBF0
EA30
EBB0
EF30
F4F0
F5F0
F630
FFF0
FFE0
7FE0
3FC0
ENDCHAR
STARTCHAR threequarters
ENCODING 190
SWIDTH 578 0
DWIDTH 12 0
BBX 12 13 0 0
BITMAP
7FC0
CBE0
EBF0
EA30
EDD0
EF30
F7D0
F490
F630
FFF0
FFE0
7FE0
3FC0
ENDCHAR
STARTCHAR questiondown
ENCODING 191
SWIDTH 578 0
DWIDTH 12 0
BBX 12 13 0 0
BITMAP
7FC0
FFE0
FDF0
FDF0
F3F0
FFF0
FFF0
F470
FFF0
FFF0
FFE0
7FE0
3FC0
ENDCHAR
STARTCHAR Agrave
ENCODING 192
SWIDTH 578 0
DWIDTH 12 0
BBX 12 19 0 0
BITMAP
1C00
3E00
3600
3B00
1B00
1F00
7FC0
F060
F770
E770
EF70
E070
EF70
EF70
EF70
FFF0
FFE0
7FE0
3FC0
ENDCHAR
STARTCHAR Aacute
ENCODING 193
SWIDTH 578 0
DWIDTH 12 0
BBX 12 19 0 0
BITMAP
0300
07C0
0DC0
0D80
0D80
0F00
7FC0
F060
F770
E770
EF70
E070
EF70
EF70
EF70
FFF0
FFE0
7FE0
3FC0
ENDCHAR
STARTCHAR Acircumflex
ENCODING 194
SWIDTH 578 0
DWIDTH 12 0
BBX 12 19 0 0
BITMAP
0F00
0F00
1B80
1B80
1EC0
3FC0
7FC0
F060
F770
E770
EF70
E070
EF70
EF70
EF70
FFF0
FFE0
7FE0
3FC0
ENDCHAR
STARTCHAR Atilde
ENCODING 195
SWIDTH 578 0
DWIDTH 12 0
BBX 12 19 0 0
BITMAP
1F80
3FC0
3FC0
32C0
34C0
1FC0
7FC0
F060
F770
E770
EF70
E070
EF70
EF70
EF70
FFF0
FFE0
7FE0
3FC0
ENDCHAR
STARTCHAR Adieresis
ENCODING 196
SWIDTH 578 0
DWIDTH 12 0
BBX 12 18 0 0
BITMAP
0F00
1F80
3FC0
36C0
3FC0
7FC0
F060
F770
E770
EF70
E070
EF70
EF70
EF70
FFF0
FFE0
7FE0
3FC0
ENDCHAR
STARTCHAR Aring
ENCODING 197
SWIDTH 578 0
DWIDTH 12 0
BBX 12 19 0 0
BITMAP
0F00
1F80
36C0
36C0
39C0
1F80
7FC0
F060
F770
E770
EF70
E070
EF70
EF70
EF70
FFF0
FFE0
7FE0
3FC0
ENDCHAR
STARTCHAR AE
ENCODING 198
SWIDTH 578 0
DWIDTH 12 0
BBX 12 13 0 0
BITMAP
7FC0
E060
EDF0
EDF0
EC70
EDF0
E1F0
EDF0
DC70
FFF0
FFE0
7FE0
3FC0
ENDCHAR
STARTCHAR Ccedilla
ENCODING 199
SWIDTH 578 0
DWIDTH 12 0
BBX 12 13 0 0
BITMAP
7FC0
E0E0
EFF0
EFF0
EFF0
EFF0
EFF0
E6F0
F4F0
FBF0
F7E0
7BE0
3FC0
ENDCHAR
STARTCHAR Egrave
ENCODING 200
SWIDTH 578 0
DWIDTH 12 0
BBX 12 19 0 0
BITMAP
0C00
3E00
3300
3B00
1B00
0F00
7FC0
F060
F7F0
F7F0
F0F0
F7F0
F7F0
F7F0
F070
FFF0
FFE0
7FE0
3FC0
ENDCHAR
STARTCHAR Eacute
ENCODING 201
SWIDTH 578 0
DWIDTH 12 0
BBX 12 19 0 0
BITMAP
0380
07C0
0EC0
0DC0
0D80
0F00
7FC0
F060
F7F0
F7F0
F0F0
F7F0
F7F0
F7F0
F070
FFF0
FFE0
7FE0
3FC0
ENDCHAR
STARTCHAR Ecircumflex
ENCODING 202
SWIDTH 578 0
DWIDTH 12 0
BBX 12 19 0 0
BITMAP
0F00
0F80
1D80
1B80
1EC0
1FC0
7FC0
F060
F7F0
F7F0
F0F0
F7F0
F7F0
F7F0
F070
FFF0
FFE0
7FE0
3FC0
ENDCHAR
STARTCHAR Edieresis
ENCODING 203
SWIDTH 578 0
DWIDTH 12 0
BBX 12 18 0 0
BITMAP
0700
1FC0
3FC0
32C0
1FC0
7FC0
F060
F7F0
F7F0
F0F0
F7F0
F7F0
F7F0
F070
FFF0
FFE0
7FE0
3FC0
ENDCHAR
STARTCHAR Igrave
ENCODING 204
SWIDTH 578 0
DWIDTH 12 0
BBX 12 19 0 0
BITMAP
0C00
3E00
3300
1B00
1B00
0F00
7FC0
F060
FDF0
FDF0
FDF0
FDF0
FDF0
FDF0
F070
FFF0
FFE0
7FE0
3FC0
ENDCHAR
STARTCHAR Iacute
ENCODING 205
SWIDTH 578 0
DWIDTH 12 0
BBX 12 19 0 0
BITMAP
0380
07C0
06C0
0DC0
0D80
0F80
7FC0
F060
FDF0
FDF0
FDF0
FDF0
FDF0
FDF0
F070
FFF0
FFE0
7FE0
3FC0
ENDCHAR
STARTCHAR Icircumflex
ENCODING 206
SWIDTH 578 0
DWIDTH 12 0
BBX 12 19 0 0
BITMAP
0700
0F80
0D80
1BC0
1AC0
1FC0
7FC0
F060
FDF0
FDF0
FDF0
FDF0
FDF0
FDF0
F070
FFF0
FFE0
7FE0
3FC0
ENDCHAR
STARTCHAR Idieresis
ENCODING 207
SWIDTH 578 0
DWIDTH 12 0
BBX 12 18 0 0
BITMAP
0700
1FC0
1FC0
32C0
1FC0
7FC0
F060
FDF0
FDF0
FDF0
FDF0
FDF0
FDF0
F070
FFF0
FFE0
7FE0
3FC0
ENDCHAR
STARTCHAR Eth
ENCODING 208
SWIDTH 578 0
DWIDTH 12 0
BBX 12 13 0 0
BITMAP
7FC0
E060
EF70
EF70
E770
EF70
EF70
EF70
E0F0
FFF0
FFE0
7FE0
3FC0
ENDCHAR
STARTCHAR Ntilde
ENCODING 209
SWIDTH 578 0
DWIDTH 12 0
BBX 12 19 0 0
BITMAP
1F80
3FC0
3FC0
36C0
34C0
3F80
7FC0
E060
EF70
EF70
EF70
EF70
EF70
EF70
EF70
FFF0
FFE0
7FE0
3FC0
ENDCHAR
STARTCHAR Ograve
ENCODING 210
SWIDTH 578 0
DWIDTH 12 0
BBX 12 19 0 0
BITMAP
1C00
3E00
3700
3B00
1B00
0F00
7FC0
E060
EF70
EF70
EF70
EF70
EF70
E770
F0F0
FFF0
FFE0
7FE0
3FC0
ENDCHAR
STARTCHAR Oacute
ENCODING 211
SWIDTH 578 0
DWIDTH 12 0
BBX 12 19 0 0
BITMAP
0300
07C0
0CC0
0DC0
0D80
0F00
7FC0
E060
EF70
EF70
EF70
EF70
EF70
E770
F0F0
FFF0
FFE0
7FE0
3FC0
ENDCHAR
STARTCHAR Ocircumflex
ENCODING 212
SWIDTH 578 0
DWIDTH 12 0
BBX 12 19 0 0
BITMAP
0F00
0F80
1B80
1B80
1EC0
1FC0
7FC0
E060
EF70
EF70
EF70
EF70
EF70
E770
F0F0
FFF0
FFE0
7FE0
3FC0
ENDCHAR
STARTCHAR Otilde
ENCODING 213
SWIDTH 578 0
DWIDTH 12 0
BBX 12 19 0 0
BITMAP
1F80
3FC0
3FC0
32E0
34C0
1FC0
7FC0
E060
EF70
EF70
EF70
EF70
EF70
E770
F0F0
FFF0
FFE0
7FE0
3FC0
ENDCHAR
STARTCHAR Odieresis
ENCODING 214
SWIDTH 578 0
DWIDTH 12 0
BBX 12 18 0 0
BITMAP
0700
1F80
3FC0
32C0
1FC0
7FC0
E060
EF70
EF70
EF70
EF70
EF70
E770
F0F0
FFF0
FFE0
7FE0
3FC0
ENDCHAR
STARTCHAR multiply
ENCODING 215
SWIDTH 578 0
DWIDTH 12 0
BBX 12 13 0 0
BITMAP
7FC0
FFE0
FFF0
FAF0
FDF0
FAF0
FFF0
FFF0
FFF0
FFF0
FFE0
7FE0
3FC0
ENDCHAR
STARTCHAR Oslash
ENCODING 216
SWIDTH 578 0
DWIDTH 12 0
BBX 12 13 0 0
BITMAP
7FC0
E160
EEF0
ED70
ED70
EB70
EF70
E070
F8F0
FFF0
FFE0
7FE0
3FC0
ENDCHAR
STARTCHAR Ugrave
ENCODING 217
SWIDTH 578 0
DWIDTH 12 0
BBX 12 19 0 0
BITMAP
0C00
3E00
3300
3B00
1B00
0F00
7FC0
EF60
EF70
EF70
EF70
EF70
EF70
E770
F0F0
FFF0
FFE0
7FE0
3FC0
ENDCHAR
STARTCHAR Uacute
ENCODING 218
SWIDTH 578 0
DWIDTH 12 0
BBX 12 19 0 0
BITMAP
0380
07C0
0EC0
0DC0
0D80
0F00
7FC0
EF60
EF70
EF70
EF70
EF70
EF70
E770
F0F0
FFF0
FFE0
7FE0
3FC0
ENDCHAR
STARTCHAR Ucircumflex
ENCODING 219
SWIDTH 578 0
DWIDTH 12 0
BBX 12 19 0 0
BITMAP
0F00
0F80
1D80
1B80
1EC0
1FC0
7FC0
EF60
EF70
EF70
EF70
EF70
EF70
E770
F0F0
FFF0
FFE0
7FE0
3FC0
ENDCHAR
STARTCHAR Udieresis
ENCODING 220
SWIDTH 578 0
DWIDTH 12 0
BBX 12 18 0 0
BITMAP
0700
1FC0
3FC0
32C0
1FC0
7FC0
EF60
EF70
EF70
EF70
EF70
EF70
E770
F0F0
FFF0
FFE0
7FE0
3FC0
ENDCHAR
STARTCHAR Yacute
ENCODING 221
SWIDTH 578 0
DWIDTH 12 0
BBX 12 19 0 0
BITMAP
0300
07C0
0EC0
0DC0
0D80
0F00
7FC0
F760
F6F0
FAF0
FAF0
F9F0
FDF0
FDF0
FDF0
FFF0
FFE0
7FE0
3FC0
ENDCHAR
STARTCHAR Thorn
ENCODING 222
SWIDTH 578 0
DWIDTH 12 0
BBX 12 13 0 0
BITMAP
7FC0
F7E0
F070
F770
F770
F070
F7F0
F7F0
F7F0
FFF0
FFE0
7FE0
3FC0
ENDCHAR
STARTCHAR germandbls
ENCODING 223
SWIDTH 578 0
DWIDTH 12 0
BBX 12 13 0 0
BITMAP
7FC0
E060
EF70
EFF0
EE70
EF70
EF70
EF70
E8F0
FFF0
FFE0
7FE0
3FC0
ENDCHAR
STARTCHAR agrave
ENCODING 224
SWIDTH 578 0
DWIDTH 12 0
BBX 12 19 0 0
BITMAP
0C00
3E00
3700
3B00
1B00
0F00
7FC0
F0E0
FFF0
FFF0
F0F0
EFF0
EFF0
EEF0
F1F0
FFF0
FFE0
7FE0
3FC0
ENDCHAR
STARTCHAR aacute
ENCODING 225
SWIDTH 578 0
DWIDTH 12 0
BBX 12 19 0 0
BITMAP
0380
07C0
0EC0
0DC0
0D80
0F00
7FC0
F0E0
FFF0
FFF0
F0F0
EFF0
EFF0
EEF0
F1F0
FFF0
FFE0
7FE0
3FC0
ENDCHAR
STARTCHAR acircumflex
ENCODING 226
SWIDTH 578 0
DWIDTH 12 0
BBX 12 19 0 0
BITMAP
0F00
0F80
1D80
1B80
1EC0
1FC0
7FC0
F0E0
FFF0
FFF0
F0F0
EFF0
EFF0
EEF0
F1F0
FFF0
FFE0
7FE0
3FC0
ENDCHAR
STARTCHAR atilde
ENCODING 227
SWIDTH 578 0
DWIDTH 12 0
BBX 12 19 0 0
BITMAP
1F80
3FC0
3FE0
32E0
34C0
1FC0
7FC0
F0E0
FFF0
FFF0
F0F0
EFF0
EFF0
EEF0
F1F0
FFF0
FFE0
7FE0
3FC0
ENDCHAR
STARTCHAR adieresis
ENCODING 228
SWIDTH 578 0
DWIDTH 12 0
BBX 12 18 0 0
BITMAP
0700
1FC0
3FC0
32C0
1FC0
7FC0
F0E0
FFF0
FFF0
F0F0
EFF0
EFF0
EEF0
F1F0
FFF0
FFE0
7FE0
3FC0
ENDCHAR
STARTCHAR aring
ENCODING 229
SWIDTH 578 0
DWIDTH 12 0
BBX 12 19 0 0
BITMAP
0F00
1F80
1EC0
3EC0
19C0
1F80
7FC0
F0E0
FFF0
FFF0
F0F0
EFF0
EFF0
EEF0
F1F0
FFF0
FFE0
7FE0
3FC0
ENDCHAR
STARTCHAR ae
ENCODING 230
SWIDTH 578 0
DWIDTH 12 0
BBX 12 13 0 0
BITMAP
7FC0
E060
EDF0
EDF0
EC70
EDF0
E1F0
EDF0
DC70
FFF0
FFE0
7FE0
3FC0
ENDCHAR
STARTCHAR ccedilla
ENCODING 231
SWIDTH 578 0
DWIDTH 12 0
BBX 12 13 0 0
BITMAP
7FC0
E0E0
EFF0
EFF0
EFF0
EFF0
EFF0
E6F0
F4F0
FBF0
F7E0
7BE0
3FC0
ENDCHAR
STARTCHAR egrave
ENCODING 232
SWIDTH 578 0
DWIDTH 12 0
BBX 12 20 0 0
BITMAP
1C00
3E00
3700
3B00
1B00
0F00
0E00
7FC0
E0E0
EF70
EF70
E070
EFF0
EFF0
E0F0
FFF0
FFF0
FFE0
7FE0
3FC0
ENDCHAR
STARTCHAR eacute
ENCODING 233
SWIDTH 578 0
DWIDTH 12 0
BBX 12 20 0 0
BITMAP
0700
0FC0
0DC0
0D80
0F80
1F00
0F00
7FC0
E0E0
EF70
EF70
E070
EFF0
EFF0
E0F0
FFF0
FFF0
FFE0
7FE0
3FC0
ENDCHAR
STARTCHAR ecircumflex
ENCODING 234
SWIDTH 578 0
DWIDTH 12 0
BBX 12 19 0 0
BITMAP
0F00
1F00
1D80
1D80
3780
3F80
7FC0
E0E0
EF70
EF70
E070
EFF0
EFF0
E0F0
FFF0
FFF0
FFE0
7FE0
3FC0
ENDCHAR
STARTCHAR edieresis
ENCODING 235
SWIDTH 578 0
DWIDTH 12 0
BBX 12 18 0 0
BITMAP
0E00
3F80
3FC0
34C0
3F80
7FC0
E0E0
EF70
EF70
E070
EFF0
EFF0
E0F0
FFF0
FFF0
FFE0
7FE0
3FC0
ENDCHAR
STARTCHAR igrave
ENCODING 236
SWIDTH 578 0
DWIDTH 12 0
BBX 12 19 0 0
BITMAP
0C00
3E00
3300
3B00
1B00
0F00
7FC0
F060
FDF0
FDF0
FDF0
FDF0
FDF0
FDF0
F070
FFF0
FFE0
7FE0
3FC0
ENDCHAR
STARTCHAR iacute
ENCODING 237
SWIDTH 578 0
DWIDTH 12 0
BBX 12 19 0 0
BITMAP
0380
07C0
0EC0
0DC0
0D80
0F00
7FC0
F060
FDF0
FDF0
FDF0
FDF0
FDF0
FDF0
F070
FFF0
FFE0
7FE0
3FC0
ENDCHAR
STARTCHAR icircumflex
ENCODING 238
SWIDTH 578 0
DWIDTH 12 0
BBX 12 19 0 0
BITMAP
0F00
0F80
1D80
1B80
1AC0
1FC0
7FC0
F060
FDF0
FDF0
FDF0
FDF0
FDF0
FDF0
F070
FFF0
FFE0
7FE0
3FC0
ENDCHAR
STARTCHAR idieresis
ENCODING 239
SWIDTH 578 0
DWIDTH 12 0
BBX 12 18 0 0
BITMAP
0700
1FC0
3FC0
32C0
1FC0
7FC0
F060
FDF0
FDF0
FDF0
FDF0
FDF0
FDF0
F070
FFF0
FFE0
7FE0
3FC0
ENDCHAR
STARTCHAR eth
ENCODING 240
SWIDTH 578 0
DWIDTH 12 0
BBX 12 13 0 0
BITMAP
7FC0
E060
EF70
EF70
E770
EF70
EF70
EF70
E0F0
FFF0
FFE0
7FE0
3FC0
ENDCHAR
STARTCHAR ntilde
ENCODING 241
SWIDTH 578 0
DWIDTH 12 0
BBX 12 19 0 0
BITMAP
1F80
3FC0
3FC0
36C0
3CC0
3F80
7FC0
E060
EF70
EF70
EF70
EF70
EF70
EF70
EF70
FFF0
FFE0
7FE0
3FC0
ENDCHAR
STARTCHAR oacute
ENCODING 243
SWIDTH 578 0
DWIDTH 12 0
BBX 12 19 0 0
BITMAP
0700
07C0
0DC0
0D80
0F80
0F00
7FC0
E060
EF70
EF70
EF70
EF70
EF70
E770
F0F0
FFF0
FFE0
7FE0
3FC0
ENDCHAR
STARTCHAR ocircumflex
ENCODING 244
SWIDTH 578 0
DWIDTH 12 0
BBX 12 19 0 0
BITMAP
0F00
0F80
1D80
1B80
1EC0
1FC0
7FC0
E060
EF70
EF70
EF70
EF70
EF70
E770
F0F0
FFF0
FFE0
7FE0
3FC0
ENDCHAR
STARTCHAR otilde
ENCODING 245
SWIDTH 578 0
DWIDTH 12 0
BBX 12 19 0 0
BITMAP
1F80
3FC0
3FC0
32C0
34C0
1FC0
7FC0
E060
EF70
EF70
EF70
EF70
EF70
E770
F0F0
FFF0
FFE0
7FE0
3FC0
ENDCHAR
STARTCHAR odieresis
ENCODING 246
SWIDTH 578 0
DWIDTH 12 0
BBX 12 18 0 0
BITMAP
0700
1FC0
3FC0
32C0
1FC0
7FC0
E060
EF70
EF70
EF70
EF70
EF70
E770
F0F0
FFF0
FFE0
7FE0
3FC0
ENDCHAR
STARTCHAR divide
ENCODING 247
SWIDTH 428 0
DWIDTH 9 0
BBX 9 13 0 0
BITMAP
7E00
F700
FF80
C380
FF80
F780
FF80
FF80
FF80
FF80
FF00
7F00
3E00
ENDCHAR
STARTCHAR oslash
ENCODING 248
SWIDTH 578 0
DWIDTH 12 0
BBX 12 13 0 0
BITMAP
7FC0
E160
EEF0
ED70
ED70
EB70
EF70
E070
F8F0
FFF0
FFE0
7FE0
3FC0
ENDCHAR
STARTCHAR ugrave
ENCODING 249
SWIDTH 578 0
DWIDTH 12 0
BBX 12 19 0 0
BITMAP
0C00
3E00
3300
3B00
1B00
0F00
7FC0
EF60
EF70
EF70
EF70
EF70
EF70
E770
F0F0
FFF0
FFE0
7FE0
3FC0
ENDCHAR
STARTCHAR uacute
ENCODING 250
SWIDTH 578 0
DWIDTH 12 0
BBX 12 19 0 0
BITMAP
0380
07C0
0EC0
0DC0
0D80
0F00
7FC0
EF60
EF70
EF70
EF70
EF70
EF70
E770
F0F0
FFF0
FFE0
7FE0
3FC0
ENDCHAR
STARTCHAR ucircumflex
ENCODING 251
SWIDTH 578 0
DWIDTH 12 0
BBX 12 19 0 0
BITMAP
0F00
0F80
1D80
1B80
1AC0
1FC0
7FC0
EF60
EF70
EF70
EF70
EF70
EF70
E770
F0F0
FFF0
FFE0
7FE0
3FC0
ENDCHAR
STARTCHAR udieresis
ENCODING 252
SWIDTH 578 0
DWIDTH 12 0
BBX 12 18 0 0
BITMAP
0700
1FC0
3FC0
32C0
1FC0
7FC0
EF60
EF70
EF70
EF70
EF70
EF70
E770
F0F0
FFF0
FFE0
7FE0
3FC0
ENDCHAR
STARTCHAR yacute
ENCODING 253
SWIDTH 578 0
DWIDTH 12 0
BBX 12 19 0 0
BITMAP
0300
07C0
0EC0
0DC0
0D80
0F00
7FC0
F760
F6F0
FAF0
FAF0
F9F0
FDF0
FDF0
FDF0
FFF0
FFE0
7FE0
3FC0
ENDCHAR
STARTCHAR thorn
ENCODING 254
SWIDTH 578 0
DWIDTH 12 0
BBX 12 13 0 0
BITMAP
7FC0
F7E0
F070
F770
F770
F070
F7F0
F7F0
F7F0
FFF0
FFE0
7FE0
3FC0
ENDCHAR
STARTCHAR ydieresis
ENCODING 255
SWIDTH 578 0
DWIDTH 12 0
BBX 12 18 0 0
BITMAP
0700
1FC0
3FC0
32C0
1FC0
7FC0
F760
F6F0
FAF0
FAF0
F9F0
FDF0
FDF0
FDF0
FFF0
FFE0
7FE0
3FC0
ENDCHAR
STARTCHAR Amacron
ENCODING 256
SWIDTH 578 0
DWIDTH 12 0
BBX 12 18 0 0
BITMAP
0F00
3FC0
3FC0
30C0
3FC0
7FC0
F060
F770
E770
EF70
E070
EF70
EF70
EF70
FFF0
FFE0
7FE0
3FC0
ENDCHAR
STARTCHAR amacron
ENCODING 257
SWIDTH 578 0
DWIDTH 12 0
BBX 12 18 0 0
BITMAP
0F00
1FC0
3FC0
30E0
3FC0
7FC0
F0E0
FFF0
FFF0
F0F0
EFF0
EFF0
EEF0
F1F0
FFF0
FFE0
7FE0
3FC0
ENDCHAR
STARTCHAR Abreve
ENCODING 258
SWIDTH 578 0
DWIDTH 12 0
BBX 12 19 0 0
BITMAP
0F00
3FC0
3FC0
36C0
39C0
1F80
7FC0
F060
F770
E770
EF70
E070
EF70
EF70
EF70
FFF0
FFE0
7FE0
3FC0
ENDCHAR
STARTCHAR abreve
ENCODING 259
SWIDTH 578 0
DWIDTH 12 0
BBX 12 19 0 0
BITMAP
0F00
1FC0
3FC0
3EE0
38C0
1FC0
7FC0
F0E0
FFF0
FFF0
F0F0
EFF0
EFF0
EEF0
F1F0
FFF0
FFE0
7FE0
3FC0
ENDCHAR
STARTCHAR Aogonek
ENCODING 260
SWIDTH 578 0
DWIDTH 12 0
BBX 12 13 0 0
BITMAP
7FC0
F060
F770
E770
EF70
E070
EF70
EF70
EF70
FEF0
FEE0
7F60
3FC0
ENDCHAR
STARTCHAR aogonek
ENCODING 261
SWIDTH 578 0
DWIDTH 12 0
BBX 12 13 0 0
BITMAP
7FC0
F0E0
FF70
FF70
F070
EF70
EF70
EE70
F4F0
FBF0
FBE0
79E0
3FC0
ENDCHAR
STARTCHAR Cacute
ENCODING 262
SWIDTH 578 0
DWIDTH 12 0
BBX 12 19 0 0
BITMAP
0380
07C0
06C0
0DC0
0D80
0F80
7FC0
E0E0
EFF0
EFF0
EFF0
EFF0
EFF0
E6F0
F0F0
FFF0
FFE0
7FE0
3FC0
ENDCHAR
STARTCHAR cacute
ENCODING 263
SWIDTH 578 0
DWIDTH 12 0
BBX 12 19 0 0
BITMAP
0380
07C0
0EC0
0DC0
0D80
0F00
7FC0
E0E0
EFF0
EFF0
EFF0
EFF0
EFF0
E6F0
F0F0
FFF0
FFE0
7FE0
3FC0
ENDCHAR
STARTCHAR Ccircumflex
ENCODING 264
SWIDTH 578 0
DWIDTH 12 0
BBX 12 19 0 0
BITMAP
0F00
0F00
1B80
1B80
1EC0
3FC0
7FC0
E0E0
EFF0
EFF0
EFF0
EFF0
EFF0
E6F0
F0F0
FFF0
FFE0
7FE0
3FC0
ENDCHAR
STARTCHAR ccircumflex
ENCODING 265
SWIDTH 578 0
DWIDTH 12 0
BBX 12 19 0 0
BITMAP
0F00
0F00
1B80
1B80
1EC0
3FC0
7FC0
E0E0
EFF0
EFF0
EFF0
EFF0
EFF0
E6F0
F0F0
FFF0
FFE0
7FE0
3FC0
ENDCHAR
STARTCHAR Cdotaccent
ENCODING 266
SWIDTH 578 0
DWIDTH 12 0
BBX 12 18 0 0
BITMAP
0F00
3F80
7FC0
7BC0
3FC0
7FC0
E0E0
EFF0
EFF0
EFF0
EFF0
EFF0
E6F0
F0F0
FFF0
FFE0
7FE0
3FC0
ENDCHAR
STARTCHAR cdotaccent
ENCODING 267
SWIDTH 578 0
DWIDTH 12 0
BBX 12 18 0 0
BITMAP
0F00
3F80
3FC0
7BC0
3FC0
7FC0
E0E0
EFF0
EFF0
EFF0
EFF0
EFF0
E6F0
F0F0
FFF0
FFE0
7FE0
3FC0
ENDCHAR
STARTCHAR Ccaron
ENCODING 268
SWIDTH 578 0
DWIDTH 12 0
BBX 12 19 0 0
BITMAP
0900
3F80
3580
3580
1F80
1F80
7FC0
E0E0
EFF0
EFF0
EFF0
EFF0
EFF0
E6F0
F0F0
FFF0
FFE0
7FE0
3FC0
ENDCHAR
STARTCHAR ccaron
ENCODING 269
SWIDTH 578 0
DWIDTH 12 0
BBX 12 19 0 0
BITMAP
0900
3F80
3780
3D80
1D80
1F80
7FC0
E0E0
EFF0
EFF0
EFF0
EFF0
EFF0
E6F0
F0F0
FFF0
FFE0
7FE0
3FC0
ENDCHAR
STARTCHAR Dcaron
ENCODING 270
SWIDTH 578 0
DWIDTH 12 0
BBX 12 20 0 0
BITMAP
0900
3F80
3780
3D80
1D80
1F80
1F00
7FC0
E060
EF70
EF70
EF70
EF70
EF70
EF70
E0F0
FFF0
FFE0
7FE0
3FC0
ENDCHAR
STARTCHAR dcaron
ENCODING 271
SWIDTH 578 0
DWIDTH 12 0
BBX 12 13 0 0
BITMAP
7FC0
C0A0
DEF0
DEF0
DEF0
DEF0
DEF0
DEF0
C1F0
FFF0
FFE0
7FE0
3FC0
ENDCHAR
STARTCHAR Dcroat
ENCODING 272
SWIDTH 578 0
DWIDTH 12 0
BBX 12 13 0 0
BITMAP
7FC0
E060
EF70
EF70
C370
EF70
EF70
EF70
E0F0
FFF0
FFE0
7FE0
3FC0
ENDCHAR
STARTCHAR dcroat
ENCODING 273
SWIDTH 578 0
DWIDTH 12 0
BBX 12 13 0 0
BITMAP
7FC0
E060
EF70
EF70
C370
EF70
EF70
EF70
E0F0
FFF0
FFE0
7FE0
3FC0
ENDCHAR
STARTCHAR Emacron
ENCODING 274
SWIDTH 578 0
DWIDTH 12 0
BBX 12 18 0 0
BITMAP
0F00
1FC0
3FC0
30E0
3FC0
7FC0
F060
F7F0
F7F0
F0F0
F7F0
F7F0
F7F0
F070
FFF0
FFE0
7FE0
3FC0
ENDCHAR
STARTCHAR emacron
ENCODING 275
SWIDTH 578 0
DWIDTH 12 0
BBX 12 18 0 0
BITMAP
0F00
3F80
3FC0
71C0
3FC0
7FC0
E0E0
EF70
EF70
E070
EFF0
EFF0
E0F0
FFF0
FFF0
FFE0
7FE0
3FC0
ENDCHAR
STARTCHAR Ebreve
ENCODING 276
SWIDTH 578 0
DWIDTH 12 0
BBX 12 19 0 0
BITMAP
0F00
1FC0
3FC0
3EE0
38C0
1FC0
7FC0
F060
F7F0
F7F0
F0F0
F7F0
F7F0
F7F0
F070
FFF0
FFE0
7FE0
3FC0
ENDCHAR
STARTCHAR ebreve
ENCODING 277
SWIDTH 578 0
DWIDTH 12 0
BBX 12 19 0 0
BITMAP
0F00
3F80
3FC0
76C0
39C0
3F80
7FC0
E0E0
EF70
EF70
E070
EFF0
EFF0
E0F0
FFF0
FFF0
FFE0
7FE0
3FC0
ENDCHAR
STARTCHAR Edotaccent
ENCODING 278
SWIDTH 578 0
DWIDTH 12 0
BBX 12 19 0 0
BITMAP
0F00
1FC0
3FC0
3DE0
3FC0
1FC0
7FC0
F060
F7F0
F7F0
F0F0
F7F0
F7F0
F7F0
F070
FFF0
FFE0
7FE0
3FC0
ENDCHAR
STARTCHAR edotaccent
ENCODING 279
SWIDTH 578 0
DWIDTH 12 0
BBX 12 19 0 0
BITMAP
0F00
3F80
3FC0
7BC0
3FC0
3F80
7FC0
E0E0
EF70
EF70
E070
EFF0
EFF0
E0F0
FFF0
FFF0
FFE0
7FE0
3FC0
ENDCHAR
STARTCHAR Eogonek
ENCODING 280
SWIDTH 578 0
DWIDTH 12 0
BBX 12 13 0 0
BITMAP
7FC0
F060
F7F0
F7F0
F0F0
F7F0
F7F0
F7F0
F170
FEF0
FEE0
7E60
3FC0
ENDCHAR
STARTCHAR eogonek
ENCODING 281
SWIDTH 578 0
DWIDTH 12 0
BBX 12 13 0 0
BITMAP
7FC0
E0E0
EF70
EF70
E070
EFF0
EFF0
E0F0
FFF0
FBF0
F9E0
7FE0
3FC0
ENDCHAR
STARTCHAR Ecaron
ENCODING 282
SWIDTH 578 0
DWIDTH 12 0
BBX 12 19 0 0
BITMAP
0980
1FC0
1AC0
1AC0
1DC0
0F80
7FC0
F060
F7F0
F7F0
F0F0
F7F0
F7F0
F7F0
F070
FFF0
FFE0
7FE0
3FC0
ENDCHAR
STARTCHAR ecaron
ENCODING 283
SWIDTH 578 0
DWIDTH 12 0
BBX 12 19 0 0
BITMAP
0900
3F80
3780
3D80
1D80
1F80
7FC0
E0E0
EF70
EF70
E070
EFF0
EFF0
E0F0
FFF0
FFF0
FFE0
7FE0
3FC0
ENDCHAR
STARTCHAR Gcircumflex
ENCODING 284
SWIDTH 578 0
DWIDTH 12 0
BBX 12 19 0 0
BITMAP
0F00
0F00
1D80
1D80
3780
3FC0
7FC0
E060
EFF0
EFF0
EC70
EF70
EF70
E770
F0F0
FFF0
FFE0
7FE0
3FC0
ENDCHAR
STARTCHAR gcircumflex
ENCODING 285
SWIDTH 578 0
DWIDTH 12 0
BBX 12 19 0 0
BITMAP
0F00
0F00
1D80
1D80
3780
3FC0
7FC0
E060
EFF0
EFF0
EC70
EF70
EF70
E770
F0F0
FFF0
FFE0
7FE0
3FC0
ENDCHAR
STARTCHAR Gbreve
ENCODING 286
SWIDTH 578 0
DWIDTH 12 0
BBX 12 19 0 0
BITMAP
0F00
3FC0
3FC0
36C0
39C0
1F80
7FC0
E060
EFF0
EFF0
EC70
EF70
EF70
E770
F0F0
FFF0
FFE0
7FE0
3FC0
ENDCHAR
STARTCHAR gbreve
ENCODING 287
SWIDTH 578 0
DWIDTH 12 0
BBX 12 19 0 0
BITMAP
0F00
3F80
3FC0
76C0
39C0
3F80
7FC0
E060
EFF0
EFF0
EC70
EF70
EF70
E770
F0F0
FFF0
FFE0
7FE0
3FC0
ENDCHAR
STARTCHAR Gdotaccent
ENCODING 288
SWIDTH 578 0
DWIDTH 12 0
BBX 12 19 0 0
BITMAP
0F00
3F80
3FC0
7BC0
3FC0
3F80
7FC0
E060
EFF0
EFF0
EC70
EF70
EF70
E770
F0F0
FFF0
FFE0
7FE0
3FC0
ENDCHAR
STARTCHAR gdotaccent
ENCODING 289
SWIDTH 578 0
DWIDTH 12 0
BBX 12 19 0 0
BITMAP
0F00
3F80
3FC0
7BC0
3FC0
3F80
7FC0
E060
EFF0
EFF0
EC70
EF70
EF70
E770
F0F0
FFF0
FFE0
7FE0
3FC0
ENDCHAR
STARTCHAR Gcommaaccent
ENCODING 290
SWIDTH 578 0
DWIDTH 12 0
BBX 12 13 0 0
BITMAP
7FC0
E060
EFF0
EFF0
EC70
EF70
EF70
E770
F2F0
FDF0
FDE0
7DE0
3FC0
ENDCHAR
STARTCHAR gcommaaccent
ENCODING 291
SWIDTH 578 0
DWIDTH 12 0
BBX 12 13 0 0
BITMAP
7FC0
E060
EFF0
EFF0
EC70
EF70
EF70
E770
F2F0
FDF0
FDE0
7DE0
3FC0
ENDCHAR
STARTCHAR Hcircumflex
ENCODING 292
SWIDTH 578 0
DWIDTH 12 0
BBX 12 19 0 0
BITMAP
0F00
0F00
1B80
1B80
1EC0
3FC0
7FC0
EF60
EF70
EF70
E070
EF70
EF70
EF70
EF70
FFF0
FFE0
7FE0
3FC0
ENDCHAR
STARTCHAR hcircumflex
ENCODING 293
SWIDTH 578 0
DWIDTH 12 0
BBX 12 19 0 0
BITMAP
0F00
0F00
1B80
1B80
1EC0
3FC0
7FC0
EF60
EF70
EF70
E070
EF70
EF70
EF70
EF70
FFF0
FFE0
7FE0
3FC0
ENDCHAR
STARTCHAR Hbar
ENCODING 294
SWIDTH 578 0
DWIDTH 12 0
BBX 12 19 0 0
BITMAP
0F00
3FC0
3FC0
30C0
3FC0
1F80
7FC0
EF60
EF70
EF70
E070
EF70
EF70
EF70
EF70
FFF0
FFE0
7FE0
3FC0
ENDCHAR
STARTCHAR hbar
ENCODING 295
SWIDTH 578 0
DWIDTH 12 0
BBX 12 13 0 0
BITMAP
7FC0
EF60
E030
EF70
E070
EF70
EF70
EF70
EF70
FFF0
FFE0
7FE0
3FC0
ENDCHAR
STARTCHAR Itilde
ENCODING 296
SWIDTH 578 0
DWIDTH 12 0
BBX 12 19 0 0
BITMAP
1F80
1FC0
3FE0
32E0
34C0
1FC0
7FC0
F060
FDF0
FDF0
FDF0
FDF0
FDF0
FDF0
F070
FFF0
FFE0
7FE0
3FC0
ENDCHAR
STARTCHAR itilde
ENCODING 297
SWIDTH 578 0
DWIDTH 12 0
BBX 12 19 0 0
BITMAP
1F80
3FC0
3FE0
32E0
34C0
1FC0
7FC0
F060
FDF0
FDF0
FDF0
FDF0
FDF0
FDF0
F070
FFF0
FFE0
7FE0
3FC0
ENDCHAR
STARTCHAR Imacron
ENCODING 298
SWIDTH 578 0
DWIDTH 12 0
BBX 12 19 0 0
BITMAP
0F00
1FC0
3FC0
30E0
3FC0
1FC0
7FC0
F060
FDF0
FDF0
FDF0
FDF0
FDF0
FDF0
F070
FFF0
FFE0
7FE0
3FC0
ENDCHAR
STARTCHAR imacron
ENCODING 299
SWIDTH 578 0
DWIDTH 12 0
BBX 12 19 0 0
BITMAP
0F00
1FC0
3FC0
30E0
3FC0
1FC0
7FC0
F060
FDF0
FDF0
FDF0
FDF0
FDF0
FDF0
F070
FFF0
FFE0
7FE0
3FC0
ENDCHAR
STARTCHAR Ibreve
ENCODING 300
SWIDTH 578 0
DWIDTH 12 0
BBX 12 19 0 0
BITMAP
0F00
1FC0
3FE0
3AE0
38C0
1FC0
7FC0
F060
FDF0
FDF0
FDF0
FDF0
FDF0
FDF0
F070
FFF0
FFE0
7FE0
3FC0
ENDCHAR
STARTCHAR ibreve
ENCODING 301
SWIDTH 578 0
DWIDTH 12 0
BBX 12 19 0 0
BITMAP
0F00
1FC0
3FE0
3EE0
38C0
1FC0
7FC0
F060
FDF0
FDF0
FDF0
FDF0
FDF0
FDF0
F070
FFF0
FFE0
7FE0
3FC0
ENDCHAR
STARTCHAR Iogonek
ENCODING 302
SWIDTH 578 0
DWIDTH 12 0
BBX 12 13 0 0
BITMAP
7FC0
F060
FDF0
FDF0
FDF0
FDF0
FDF0
FDF0
F170
FEF0
FEE0
7F60
3FC0
ENDCHAR
STARTCHAR iogonek
ENCODING 303
SWIDTH 578 0
DWIDTH 12 0
BBX 12 13 0 0
BITMAP
7FC0
F060
FDF0
FDF0
FDF0
FDF0
FDF0
FDF0
F170
FEF0
FEE0
7F60
3FC0
ENDCHAR
STARTCHAR Idotaccent
ENCODING 304
SWIDTH 578 0
DWIDTH 12 0
BBX 12 19 0 0
BITMAP
0F00
3FC0
3FC0
39C0
3FC0
3FC0
7FC0
F060
FDF0
FDF0
FDF0
FDF0
FDF0
FDF0
F070
FFF0
FFE0
7FE0
3FC0
ENDCHAR
STARTCHAR dotlessi
ENCODING 305
SWIDTH 578 0
DWIDTH 12 0
BBX 12 13 0 0
BITMAP
7FC0
F060
FDF0
FDF0
FDF0
FDF0
FDF0
FDF0
F070
FFF0
FFE0
7FE0
3FC0
ENDCHAR
STARTCHAR IJ
ENCODING 306
SWIDTH 578 0
DWIDTH 12 0
BBX 12 13 0 0
BITMAP
7FC0
C3A0
EFB0
EFB0
EFB0
EFB0
EFB0
EF30
C2F0
FFF0
FFE0
7FE0
3FC0
ENDCHAR
STARTCHAR ij
ENCODING 307
SWIDTH 578 0
DWIDTH 12 0
BBX 12 13 0 0
BITMAP
7FC0
C3A0
EFB0
EFB0
EFB0
EFB0
EFB0
EF30
C2F0
FFF0
FFE0
7FE0
3FC0
ENDCHAR
STARTCHAR Jcircumflex
ENCODING 308
SWIDTH 578 0
DWIDTH 12 0
BBX 12 19 0 0
BITMAP
0F00
0F80
1B80
1B80
1EC0
1FC0
7FC0
FEE0
FEF0
FEF0
FEF0
FEF0
FEF0
FCF0
F3F0
FFF0
FFE0
7FE0
3FC0
ENDCHAR
STARTCHAR jcircumflex
ENCODING 309
SWIDTH 578 0
DWIDTH 12 0
BBX 12 19 0 0
BITMAP
0F00
0F80
1B80
1B80
1EC0
1FC0
7FC0
FEE0
FEF0
FEF0
FEF0
FEF0
FEF0
FCF0
F3F0
FFF0
FFE0
7FE0
3FC0
ENDCHAR
STARTCHAR Kcommaaccent
ENCODING 310
SWIDTH 578 0
DWIDTH 12 0
BBX 12 13 0 0
BITMAP
7FC0
F760
F6F0
F5F0
F3F0
F5F0
F6F0
F770
F7F0
FDF0
FDE0
7DE0
3FC0
ENDCHAR
STARTCHAR kcommaaccent
ENCODING 311
SWIDTH 578 0
DWIDTH 12 0
BBX 12 13 0 0
BITMAP
7FC0
F760
F6F0
F5F0
F3F0
F5F0
F6F0
F770
F7F0
FDF0
FDE0
7DE0
3FC0
ENDCHAR
STARTCHAR kgreenlandic
ENCODING 312
SWIDTH 578 0
DWIDTH 12 0
BBX 12 13 0 0
BITMAP
7FC0
F760
F6F0
F5F0
F3F0
F5F0
F6F0
F770
F7F0
FFF0
FFE0
7FE0
3FC0
ENDCHAR
STARTCHAR Lacute
ENCODING 313
SWIDTH 578 0
DWIDTH 12 0
BBX 12 20 0 0
BITMAP
0600
0F80
1980
1B80
1B00
1E00
1E00
7FC0
F7E0
F7F0
F7F0
F7F0
F7F0
F7F0
F7F0
F0F0
FFF0
FFE0
7FE0
3FC0
ENDCHAR
STARTCHAR lacute
ENCODING 314
SWIDTH 578 0
DWIDTH 12 0
BBX 12 20 0 0
BITMAP
0600
0F80
1980
1B80
1B00
1E00
1E00
7FC0
F7E0
F7F0
F7F0
F7F0
F7F0
F7F0
F7F0
F0F0
FFF0
FFE0
7FE0
3FC0
ENDCHAR
STARTCHAR Lcommaaccent
ENCODING 315
SWIDTH 578 0
DWIDTH 12 0
BBX 12 13 0 0
BITMAP
7FC0
F7E0
F7F0
F7F0
F7F0
F7F0
F7F0
F7F0
F2F0
FDF0
FDE0
7DE0
3FC0
ENDCHAR
STARTCHAR lcommaaccent
ENCODING 316
SWIDTH 578 0
DWIDTH 12 0
BBX 12 13 0 0
BITMAP
7FC0
F7E0
F7F0
F7F0
F7F0
F7F0
F7F0
F7F0
F2F0
FDF0
FDE0
7DE0
3FC0
ENDCHAR
STARTCHAR Lcaron
ENCODING 317
SWIDTH 578 0
DWIDTH 12 0
BBX 12 13 0 0
BITMAP
7FC0
F6E0
F6F0
F7F0
F7F0
F7F0
F7F0
F7F0
F0F0
FFF0
FFE0
7FE0
3FC0
ENDCHAR
STARTCHAR lcaron
ENCODING 318
SWIDTH 578 0
DWIDTH 12 0
BBX 12 13 0 0
BITMAP
7FC0
F6E0
F6F0
F7F0
F7F0
F7F0
F7F0
F7F0
F0F0
FFF0
FFE0
7FE0
3FC0
ENDCHAR
STARTCHAR Ldot
ENCODING 319
SWIDTH 578 0
DWIDTH 12 0
BBX 12 13 0 0
BITMAP
7FC0
F7E0
F7F0
F4F0
F7F0
F7F0
F7F0
F7F0
F0F0
FFF0
FFE0
7FE0
3FC0
ENDCHAR
STARTCHAR ldot
ENCODING 320
SWIDTH 578 0
DWIDTH 12 0
BBX 12 13 0 0
BITMAP
7FC0
F7E0
F7F0
F4F0
F7F0
F7F0
F7F0
F7F0
F0F0
FFF0
FFE0
7FE0
3FC0
ENDCHAR
STARTCHAR Lslash
ENCODING 321
SWIDTH 578 0
DWIDTH 12 0
BBX 12 13 0 0
BITMAP
7FC0
F7E0
F7F0
F5F0
F7F0
F7F0
F7F0
F7F0
F0F0
FFF0
FFE0
7FE0
3FC0
ENDCHAR
STARTCHAR lslash
ENCODING 322
SWIDTH 578 0
DWIDTH 12 0
BBX 12 13 0 0
BITMAP
7FC0
F7E0
F7F0
F5F0
F7F0
F7F0
F7F0
F7F0
F0F0
FFF0
FFE0
7FE0
3FC0
ENDCHAR
STARTCHAR Nacute
ENCODING 323
SWIDTH 578 0
DWIDTH 12 0
BBX 12 20 0 0
BITMAP
0700
0FC0
0DC0
0D80
0F80
1F00
0F00
7FC0
E060
EF70
EF70
EF70
EF70
EF70
EF70
EF70
FFF0
FFE0
7FE0
3FC0
ENDCHAR
STARTCHAR nacute
ENCODING 324
SWIDTH 578 0
DWIDTH 12 0
BBX 12 20 0 0
BITMAP
0700
0FC0
0DC0
0D80
0F80
1F00
0F00
7FC0
E060
EF70
EF70
EF70
EF70
EF70
EF70
EF70
FFF0
FFE0
7FE0
3FC0
ENDCHAR
STARTCHAR Ncommaaccent
ENCODING 325
SWIDTH 578 0
DWIDTH 12 0
BBX 12 13 0 0
BITMAP
7FC0
E060
EF70
EF70
EF70
EF70
EF70
EF70
EF70
FDF0
FDE0
7DE0
3FC0
ENDCHAR
STARTCHAR ncommaaccent
ENCODING 326
SWIDTH 578 0
DWIDTH 12 0
BBX 12 13 0 0
BITMAP
7FC0
E060
EF70
EF70
EF70
EF70
EF70
EF70
EF70
FDF0
FDE0
7DE0
3FC0
ENDCHAR
STARTCHAR Ncaron
ENCODING 327
SWIDTH 578 0
DWIDTH 12 0
BBX 12 19 0 0
BITMAP
0900
3F80
3780
3D80
1D80
1F80
7FC0
E060
EF70
EF70
EF70
EF70
EF70
EF70
EF70
FFF0
FFE0
7FE0
3FC0
ENDCHAR
STARTCHAR ncaron
ENCODING 328
SWIDTH 578 0
DWIDTH 12 0
BBX 12 19 0 0
BITMAP
0900
3F80
3780
3D80
1D80
1F80
7FC0
E060
EF70
EF70
EF70
EF70
EF70
EF70
EF70
FFF0
FFE0
7FE0
3FC0
ENDCHAR
STARTCHAR napostrophe
ENCODING 329
SWIDTH 578 0
DWIDTH 12 0
BBX 12 13 0 0
BITMAP
7FC0
A060
EF70
AF70
EF70
EF70
EF70
EF70
EF70
FFF0
FFE0
7FE0
3FC0
ENDCHAR
STARTCHAR Eng
ENCODING 330
SWIDTH 578 0
DWIDTH 12 0
BBX 12 13 0 0
BITMAP
7FC0
E060
EF70
EF70
EF70
EF70
EF70
EF70
EF70
FF70
FC60
7FE0
3FC0
ENDCHAR
STARTCHAR eng
ENCODING 331
SWIDTH 578 0
DWIDTH 12 0
BBX 12 13 0 0
BITMAP
7FC0
E060
EF70
EF70
EF70
EF70
EF70
EF70
EF70
FF70
FC60
7FE0
3FC0
ENDCHAR
STARTCHAR Omacron
ENCODING 332
SWIDTH 578 0
DWIDTH 12 0
BBX 12 19 0 0
BITMAP
0F00
1FC0
3FC0
30E0
3FC0
1FC0
7FC0
E060
EF70
EF70
EF70
EF70
EF70
E770
F0F0
FFF0
FFE0
7FE0
3FC0
ENDCHAR
STARTCHAR omacron
ENCODING 333
SWIDTH 578 0
DWIDTH 12 0
BBX 12 19 0 0
BITMAP
0F00
1FC0
3FC0
30E0
3FC0
1FC0
7FC0
E060
EF70
EF70
EF70
EF70
EF70
E770
F0F0
FFF0
FFE0
7FE0
3FC0
ENDCHAR
STARTCHAR Obreve
ENCODING 334
SWIDTH 578 0
DWIDTH 12 0
BBX 12 19 0 0
BITMAP
0F00
1FC0
3FC0
36E0
39C0
1FC0
7FC0
E060
EF70
EF70
EF70
EF70
EF70
E770
F0F0
FFF0
FFE0
7FE0
3FC0
ENDCHAR
STARTCHAR obreve
ENCODING 335
SWIDTH 578 0
DWIDTH 12 0
BBX 12 19 0 0
BITMAP
0F00
1FC0
3FC0
36E0
39C0
1FC0
7FC0
E060
EF70
EF70
EF70
EF70
EF70
E770
F0F0
FFF0
FFE0
7FE0
3FC0
ENDCHAR
STARTCHAR Ohungarumlaut
ENCODING 336
SWIDTH 578 0
DWIDTH 12 0
BBX 12 19 0 0
BITMAP
03C0
07E0
0FB0
0D60
1BE0
1FC0
7FC0
E060
EF70
EF70
EF70
EF70
EF70
E770
F0F0
FFF0
FFE0
7FE0
3FC0
ENDCHAR
STARTCHAR ohungarumlaut
ENCODING 337
SWIDTH 578 0
DWIDTH 12 0
BBX 12 19 0 0
BITMAP
03C0
07E0
0FB0
0D60
1BE0
1FC0
7FC0
E060
EF70
EF70
EF70
EF70
EF70
E770
F0F0
FFF0
FFE0
7FE0
3FC0
ENDCHAR
STARTCHAR OE
ENCODING 338
SWIDTH 578 0
DWIDTH 12 0
BBX 12 13 0 0
BITMAP
7FC0
C060
DDF0
DDF0
DC70
DDF0
DDF0
C9F0
E230
FFF0
FFE0
7FE0
3FC0
ENDCHAR
STARTCHAR oe
ENCODING 339
SWIDTH 578 0
DWIDTH 12 0
BBX 12 13 0 0
BITMAP
7FC0
C060
DDF0
DDF0
DC70
DDF0
DDF0
C9F0
E230
FFF0
FFE0
7FE0
3FC0
ENDCHAR
STARTCHAR Racute
ENCODING 340
SWIDTH 578 0
DWIDTH 12 0
BBX 12 19 0 0
BITMAP
0700
0FC0
0DC0
0D80
0F80
1F00
7FC0
E060
EF70
EF70
E1F0
EE70
EF70
EF70
EF70
FFF0
FFE0
7FE0
3FC0
ENDCHAR
STARTCHAR racute
ENCODING 341
SWIDTH 578 0
DWIDTH 12 0
BBX 12 19 0 0
BITMAP
0700
0FC0
0DC0
0D80
0F80
1F00
7FC0
E060
EF70
EF70
E1F0
EE70
EF70
EF70
EF70
FFF0
FFE0
7FE0
3FC0
ENDCHAR
STARTCHAR Rcommaaccent
ENCODING 342
SWIDTH 578 0
DWIDTH 12 0
BBX 12 13 0 0
BITMAP
7FC0
E060
EF70
EF70
E1F0
EE70
EF70
EF70
EF70
FDF0
FDE0
7DE0
3FC0
ENDCHAR
STARTCHAR rcommaaccent
ENCODING 343
SWIDTH 578 0
DWIDTH 12 0
BBX 12 13 0 0
BITMAP
7FC0
E060
EF70
EF70
E1F0
EE70
EF70
EF70
EF70
FDF0
FDE0
7DE0
3FC0
ENDCHAR
STARTCHAR Rcaron
ENCODING 344
SWIDTH 578 0
DWIDTH 12 0
BBX 12 19 0 0
BITMAP
0900
3F80
3780
3D80
1D80
1F80
7FC0
E060
EF70
EF70
E1F0
EE70
EF70
EF70
EF70
FFF0
FFE0
7FE0
3FC0
ENDCHAR
STARTCHAR rcaron
ENCODING 345
SWIDTH 578 0
DWIDTH 12 0
BBX 12 19 0 0
BITMAP
0900
3F80
3780
3D80
1D80
1F80
7FC0
E060
EF70
EF70
E1F0
EE70
EF70
EF70
EF70
FFF0
FFE0
7FE0
3FC0
ENDCHAR
STARTCHAR Sacute
ENCODING 346
SWIDTH 578 0
DWIDTH 12 0
BBX 12 19 0 0
BITMAP
0380
07C0
06C0
0DC0
0D80
0F80
7FC0
E060
EFF0
EFF0
F070
FF70
FF70
F770
F0F0
FFF0
FFE0
7FE0
3FC0
ENDCHAR
STARTCHAR sacute
ENCODING 347
SWIDTH 578 0
DWIDTH 12 0
BBX 12 19 0 0
BITMAP
0380
07C0
06C0
0DC0
0D80
0F80
7FC0
E060
EFF0
EFF0
F070
FF70
FF70
F770
F0F0
FFF0
FFE0
7FE0
3FC0
ENDCHAR
STARTCHAR Scircumflex
ENCODING 348
SWIDTH 578 0
DWIDTH 12 0
BBX 12 19 0 0
BITMAP
0700
0F80
0D80
1BC0
1AC0
1FC0
7FC0
E060
EFF0
EFF0
F070
FF70
FF70
F770
F0F0
FFF0
FFE0
7FE0
3FC0
ENDCHAR
STARTCHAR scircumflex
ENCODING 349
SWIDTH 578 0
DWIDTH 12 0
BBX 12 19 0 0
BITMAP
0700
0F80
0D80
1BC0
1AC0
1FC0
7FC0
E060
EFF0
EFF0
F070
FF70
FF70
F770
F0F0
FFF0
FFE0
7FE0
3FC0
ENDCHAR
STARTCHAR Scedilla
ENCODING 350
SWIDTH 578 0
DWIDTH 12 0
BBX 12 13 0 0
BITMAP
7FC0
E060
EFF0
EFF0
F070
FF70
FF70
F770
F4F0
F9F0
FBE0
79E0
3FC0
ENDCHAR
STARTCHAR scedilla
ENCODING 351
SWIDTH 578 0
DWIDTH 12 0
BBX 12 13 0 0
BITMAP
7FC0
E060
EFF0
EFF0
F070
FF70
FF70
F770
F4F0
F9F0
FBE0
79E0
3FC0
ENDCHAR
STARTCHAR Scaron
ENCODING 352
SWIDTH 578 0
DWIDTH 12 0
BBX 12 19 0 0
BITMAP
0D80
1FC0
1AC0
1AC0
1FC0
0F80
7FC0
E060
EFF0
EFF0
F070
FF70
FF70
F770
F0F0
FFF0
FFE0
7FE0
3FC0
ENDCHAR
STARTCHAR scaron
ENCODING 353
SWIDTH 578 0
DWIDTH 12 0
BBX 12 19 0 0
BITMAP
0D80
1FC0
1AC0
1AC0
1FC0
0F80
7FC0
E060
EFF0
EFF0
F070
FF70
FF70
F770
F0F0
FFF0
FFE0
7FE0
3FC0
ENDCHAR
STARTCHAR Tcommaaccent
ENCODING 354
SWIDTH 578 0
DWIDTH 12 0
BBX 12 13 0 0
BITMAP
7FC0
F060
FDF0
FDF0
FDF0
FDF0
FDF0
FDF0
FFF0
FDF0
FDE0
7DE0
3FC0
ENDCHAR
STARTCHAR tcommaaccent
ENCODING 355
SWIDTH 578 0
DWIDTH 12 0
BBX 12 13 0 0
BITMAP
7FC0
F060
FDF0
FDF0
FDF0
FDF0
FDF0
FDF0
FFF0
FDF0
FDE0
7DE0
3FC0
ENDCHAR
STARTCHAR Tcaron
ENCODING 356
SWIDTH 578 0
DWIDTH 12 0
BBX 12 19 0 0
BITMAP
0900
1FC0
1EC0
1BC0
1B80
1F80
7FC0
F060
FDF0
FDF0
FDF0
FDF0
FDF0
FDF0
FDF0
FFF0
FFE0
7FE0
3FC0
ENDCHAR
STARTCHAR tcaron
ENCODING 357
SWIDTH 578 0
DWIDTH 12 0
BBX 12 13 0 0
BITMAP
7FC0
F0E0
FD70
FD70
FD70
FDF0
FDF0
FDF0
FDF0
FFF0
FFE0
7FE0
3FC0
ENDCHAR
STARTCHAR Tbar
ENCODING 358
SWIDTH 578 0
DWIDTH 12 0
BBX 12 13 0 0
BITMAP
7FC0
F060
FDF0
FDF0
F0F0
FDF0
FDF0
FDF0
FDF0
FFF0
FFE0
7FE0
3FC0
ENDCHAR
STARTCHAR tbar
ENCODING 359
SWIDTH 578 0
DWIDTH 12 0
BBX 12 13 0 0
BITMAP
7FC0
F060
FDF0
FDF0
F0F0
FDF0
FDF0
FDF0
FDF0
FFF0
FFE0
7FE0
3FC0
ENDCHAR
STARTCHAR Utilde
ENCODING 360
SWIDTH 578 0
DWIDTH 12 0
BBX 12 19 0 0
BITMAP
1F80
3FC0
3FE0
32E0
34C0
1FC0
7FC0
EF60
EF70
EF70
EF70
EF70
EF70
E770
F0F0
FFF0
FFE0
7FE0
3FC0
ENDCHAR
STARTCHAR utilde
ENCODING 361
SWIDTH 578 0
DWIDTH 12 0
BBX 12 19 0 0
BITMAP
1F80
3FC0
3FE0
32E0
34C0
1FC0
7FC0
EF60
EF70
EF70
EF70
EF70
EF70
E770
F0F0
FFF0
FFE0
7FE0
3FC0
ENDCHAR
STARTCHAR Umacron
ENCODING 362
SWIDTH 578 0
DWIDTH 12 0
BBX 12 19 0 0
BITMAP
0F00
1FC0
3FC0
30E0
3FC0
1FC0
7FC0
EF60
EF70
EF70
EF70
EF70
EF70
E770
F0F0
FFF0
FFE0
7FE0
3FC0
ENDCHAR
STARTCHAR umacron
ENCODING 363
SWIDTH 578 0
DWIDTH 12 0
BBX 12 19 0 0
BITMAP
0F00
1FC0
3FC0
30E0
3FC0
1FC0
7FC0
EF60
EF70
EF70
EF70
EF70
EF70
E770
F0F0
FFF0
FFE0
7FE0
3FC0
ENDCHAR
STARTCHAR Ubreve
ENCODING 364
SWIDTH 578 0
DWIDTH 12 0
BBX 12 19 0 0
BITMAP
0F00
1FC0
3FC0
3EE0
38C0
1FC0
7FC0
EF60
EF70
EF70
EF70
EF70
EF70
E770
F0F0
FFF0
FFE0
7FE0
3FC0
ENDCHAR
STARTCHAR ubreve
ENCODING 365
SWIDTH 578 0
DWIDTH 12 0
BBX 12 19 0 0
BITMAP
0F00
1FC0
3FE0
3EE0
38C0
1FC0
7FC0
EF60
EF70
EF70
EF70
EF70
EF70
E770
F0F0
FFF0
FFE0
7FE0
3FC0
ENDCHAR
STARTCHAR Uring
ENCODING 366
SWIDTH 578 0
DWIDTH 12 0
BBX 12 19 0 0
BITMAP
0F00
1F80
1EC0
3EC0
19C0
1F80
7FC0
EF60
EF70
EF70
EF70
EF70
EF70
E770
F0F0
FFF0
FFE0
7FE0
3FC0
ENDCHAR
STARTCHAR uring
ENCODING 367
SWIDTH 578 0
DWIDTH 12 0
BBX 12 19 0 0
BITMAP
0F00
1F80
1EC0
3EC0
19C0
1F80
7FC0
EF60
EF70
EF70
EF70
EF70
EF70
E770
F0F0
FFF0
FFE0
7FE0
3FC0
ENDCHAR
STARTCHAR Uhungarumlaut
ENCODING 368
SWIDTH 581 0
DWIDTH 12 0
BBX 12 19 0 0
BITMAP
03C0
07E0
0FB0
0D60
1BE0
1FC0
7FC0
EF60
EF70
EF70
EF70
EF70
EF70
E770
F0F0
FFF0
FFE0
7FE0
3FC0
ENDCHAR
STARTCHAR uhungarumlaut
ENCODING 369
SWIDTH 582 0
DWIDTH 12 0
BBX 12 19 0 0
BITMAP
03C0
07E0
0FB0
0D60
1FE0
1FC0
7FC0
EF60
EF70
EF70
EF70
EF70
EF70
E770
F0F0
FFF0
FFE0
7FE0
3FC0
ENDCHAR
STARTCHAR Uogonek
ENCODING 370
SWIDTH 578 0
DWIDTH 12 0
BBX 12 13 0 0
BITMAP
7FC0
EF60
EF70
EF70
EF70
EF70
EF70
E770
F2F0
FDF0
FBE0
7DE0
3FC0
ENDCHAR
STARTCHAR uogonek
ENCODING 371
SWIDTH 578 0
DWIDTH 12 0
BBX 12 13 0 0
BITMAP
7FC0
EF60
EF70
EF70
EF70
EF70
EF70
E770
F2F0
FDF0
FBE0
7DE0
3FC0
ENDCHAR
STARTCHAR Wcircumflex
ENCODING 372
SWIDTH 578 0
DWIDTH 12 0
BBX 12 19 0 0
BITMAP
0F00
0F00
1D80
1D80
3FC0
3FC0
7FC0
D9A0
D9B0
C9B0
EB30
EB70
EB70
EF70
F6F0
FFF0
FFE0
7FE0
3FC0
ENDCHAR
STARTCHAR wcircumflex
ENCODING 373
SWIDTH 578 0
DWIDTH 12 0
BBX 12 19 0 0
BITMAP
0F00
0F00
1D80
1D80
3FC0
3FC0
7FC0
D9A0
D9B0
C9B0
EB30
EB70
EB70
EF70
F6F0
FFF0
FFE0
7FE0
3FC0
ENDCHAR
STARTCHAR Ycircumflex
ENCODING 374
SWIDTH 578 0
DWIDTH 12 0
BBX 12 19 0 0
BITMAP
0F00
0F80
1B80
1B80
1EC0
1FC0
7FC0
F760
F6F0
FAF0
FAF0
F9F0
FDF0
FDF0
FDF0
FFF0
FFE0
7FE0
3FC0
ENDCHAR
STARTCHAR ycircumflex
ENCODING 375
SWIDTH 578 0
DWIDTH 12 0
BBX 12 19 0 0
BITMAP
0F00
0F80
1B80
1B80
1EC0
1FC0
7FC0
F760
F6F0
FAF0
FAF0
F9F0
FDF0
FDF0
FDF0
FFF0
FFE0
7FE0
3FC0
ENDCHAR
STARTCHAR Ydieresis
ENCODING 376
SWIDTH 578 0
DWIDTH 12 0
BBX 12 18 0 0
BITMAP
0700
1FC0
3FC0
32C0
1FC0
7FC0
F760
F6F0
FAF0
FAF0
F9F0
FDF0
FDF0
FDF0
FFF0
FFE0
7FE0
3FC0
ENDCHAR
STARTCHAR Zacute
ENCODING 377
SWIDTH 578 0
DWIDTH 12 0
BBX 12 20 0 0
BITMAP
0700
0F80
0D80
1F80
1B00
1F00
0E00
7FC0
F0E0
FEF0
FDF0
F9F0
FBF0
F3F0
F7F0
F070
FFF0
FFE0
7FE0
3FC0
ENDCHAR
STARTCHAR zacute
ENCODING 378
SWIDTH 578 0
DWIDTH 12 0
BBX 12 20 0 0
BITMAP
0700
0F80
0D80
1F80
1B00
1F00
0E00
7FC0
F0E0
FEF0
FDF0
F9F0
FBF0
F3F0
F7F0
F070
FFF0
FFE0
7FE0
3FC0
ENDCHAR
STARTCHAR Zdotaccent
ENCODING 379
SWIDTH 578 0
DWIDTH 12 0
BBX 12 19 0 0
BITMAP
0F00
3F80
3FC0
7BC0
3FC0
3F80
7FC0
F0E0
FEF0
FDF0
F9F0
FBF0
F3F0
F7F0
F070
FFF0
FFE0
7FE0
3FC0
ENDCHAR
STARTCHAR zdotaccent
ENCODING 380
SWIDTH 578 0
DWIDTH 12 0
BBX 12 19 0 0
BITMAP
0F00
3F80
3FC0
7BC0
3FC0
3F80
7FC0
F0E0
FEF0
FDF0
F9F0
FBF0
F3F0
F7F0
F070
FFF0
FFE0
7FE0
3FC0
ENDCHAR
STARTCHAR Zcaron
ENCODING 381
SWIDTH 578 0
DWIDTH 12 0
BBX 12 19 0 0
BITMAP
0900
1F80
36C0
1D80
1D80
1F80
7FC0
F0E0
FEF0
FDF0
F9F0
FBF0
F3F0
F7F0
F070
FFF0
FFE0
7FE0
3FC0
ENDCHAR
STARTCHAR zcaron
ENCODING 382
SWIDTH 578 0
DWIDTH 12 0
BBX 12 19 0 0
BITMAP
0900
1F80
36C0
1D80
1D80
1F80
7FC0
F0E0
FEF0
FDF0
F9F0
FBF0
F3F0
F7F0
F070
FFF0
FFE0
7FE0
3FC0
ENDCHAR
STARTCHAR longs
ENCODING 383
SWIDTH 578 0
DWIDTH 12 0
BBX 12 13 0 0
BITMAP
7FC0
F0E0
EF70
EF70
EF70
EF70
F6F0
FFF0
FFF0
FFF0
FFE0
7FE0
3FC0
ENDCHAR
STARTCHAR florin
ENCODING 402
SWIDTH 578 0
DWIDTH 12 0
BBX 12 13 0 0
BITMAP
7FC0
F8E0
FBF0
FBF0
F1F0
FBF0
FBF0
FBF0
FBF0
FBF0
FFE0
7FE0
3FC0
ENDCHAR
STARTCHAR uni01CD
ENCODING 461
SWIDTH 578 0
DWIDTH 12 0
BBX 12 19 0 0
BITMAP
0900
1FC0
1EC0
1BC0
1B80
1F80
7FC0
F060
F770
E770
EF70
E070
EF70
EF70
EF70
FFF0
FFE0
7FE0
3FC0
ENDCHAR
STARTCHAR uni01CE
ENCODING 462
SWIDTH 578 0
DWIDTH 12 0
BBX 12 19 0 0
BITMAP
0900
1FC0
1EC0
1AC0
1BC0
1F80
7FC0
F0E0
FFF0
FFF0
F0F0
EFF0
EFF0
EEF0
F1F0
FFF0
FFE0
7FE0
3FC0
ENDCHAR
STARTCHAR uni01CF
ENCODING 463
SWIDTH 578 0
DWIDTH 12 0
BBX 12 19 0 0
BITMAP
0D80
1FC0
1AC0
1AC0
1FC0
0F80
7FC0
F060
FDF0
FDF0
FDF0
FDF0
FDF0
FDF0
F070
FFF0
FFE0
7FE0
3FC0
ENDCHAR
STARTCHAR uni01D0
ENCODING 464
SWIDTH 578 0
DWIDTH 12 0
BBX 12 19 0 0
BITMAP
0980
1FC0
1AC0
1AC0
1FC0
0F80
7FC0
F060
FDF0
FDF0
FDF0
FDF0
FDF0
FDF0
F070
FFF0
FFE0
7FE0
3FC0
ENDCHAR
STARTCHAR uni01D1
ENCODING 465
SWIDTH 578 0
DWIDTH 12 0
BBX 12 19 0 0
BITMAP
0900
1FC0
1EC0
1BC0
1B80
1F80
7FC0
E060
EF70
EF70
EF70
EF70
EF70
E770
F0F0
FFF0
FFE0
7FE0
3FC0
ENDCHAR
STARTCHAR uni01D3
ENCODING 467
SWIDTH 578 0
DWIDTH 12 0
BBX 12 19 0 0
BITMAP
0980
1FC0
1AC0
1AC0
1DC0
0F80
7FC0
EF60
EF70
EF70
EF70
EF70
EF70
E770
F0F0
FFF0
FFE0
7FE0
3FC0
ENDCHAR
STARTCHAR uni01D4
ENCODING 468
SWIDTH 578 0
DWIDTH 12 0
BBX 12 19 0 0
BITMAP
0980
1FC0
1AC0
1AC0
1FC0
0F80
7FC0
EF60
EF70
EF70
EF70
EF70
EF70
E770
F0F0
FFF0
FFE0
7FE0
3FC0
ENDCHAR
STARTCHAR uni0200
ENCODING 512
SWIDTH 578 0
DWIDTH 12 0
BBX 12 19 0 0
BITMAP
3E00
3F00
6B00
6F80
3580
1F80
7FC0
F060
F770
E770
EF70
E070
EF70
EF70
EF70
FFF0
FFE0
7FE0
3FC0
ENDCHAR
STARTCHAR uni0201
ENCODING 513
SWIDTH 578 0
DWIDTH 12 0
BBX 12 19 0 0
BITMAP
3E00
3F00
6B00
6F80
3580
1F80
7FC0
F0E0
FFF0
FFF0
F0F0
EFF0
EFF0
EEF0
F1F0
FFF0
FFE0
7FE0
3FC0
ENDCHAR
STARTCHAR uni0202
ENCODING 514
SWIDTH 578 0
DWIDTH 12 0
BBX 12 19 0 0
BITMAP
0600
1F80
3FC0
39C0
36C0
3FC0
7FC0
F060
F770
E770
EF70
E070
EF70
EF70
EF70
FFF0
FFE0
7FE0
3FC0
ENDCHAR
STARTCHAR uni0203
ENCODING 515
SWIDTH 578 0
DWIDTH 12 0
BBX 12 19 0 0
BITMAP
0600
1F80
3FC0
39C0
36C0
3FC0
7FC0
F0E0
FFF0
FFF0
F0F0
EFF0
EFF0
EEF0
F1F0
FFF0
FFE0
7FE0
3FC0
ENDCHAR
STARTCHAR uni0204
ENCODING 516
SWIDTH 578 0
DWIDTH 12 0
BBX 12 19 0 0
BITMAP
3E00
3F00
6B00
6F80
3580
1F80
7FC0
F060
F7F0
F7F0
F0F0
F7F0
F7F0
F7F0
F070
FFF0
FFE0
7FE0
3FC0
ENDCHAR
STARTCHAR uni0205
ENCODING 517
SWIDTH 578 0
DWIDTH 12 0
BBX 12 19 0 0
BITMAP
3E00
3F00
6B00
6F80
3580
1F80
7FC0
E0E0
EF70
EF70
E070
EFF0
EFF0
E0F0
FFF0
FFF0
FFE0
7FE0
3FC0
ENDCHAR
STARTCHAR uni0206
ENCODING 518
SWIDTH 578 0
DWIDTH 12 0
BBX 12 19 0 0
BITMAP
0600
1F80
3FC0
39C0
36C0
3FC0
7FC0
F060
F7F0
F7F0
F0F0
F7F0
F7F0
F7F0
F070
FFF0
FFE0
7FE0
3FC0
ENDCHAR
STARTCHAR uni0207
ENCODING 519
SWIDTH 578 0
DWIDTH 12 0
BBX 12 19 0 0
BITMAP
0600
1F80
3FC0
39C0
36C0
3FC0
7FC0
E0E0
EF70
EF70
E070
EFF0
EFF0
E0F0
FFF0
FFF0
FFE0
7FE0
3FC0
ENDCHAR
STARTCHAR uni0208
ENCODING 520
SWIDTH 578 0
DWIDTH 12 0
BBX 12 19 0 0
BITMAP
3E00
3F00
6B00
6F80
3580
1F80
7FC0
F060
FDF0
FDF0
FDF0
FDF0
FDF0
FDF0
F070
FFF0
FFE0
7FE0
3FC0
ENDCHAR
STARTCHAR uni0209
ENCODING 521
SWIDTH 578 0
DWIDTH 12 0
BBX 12 19 0 0
BITMAP
3E00
3F00
6B00
6F80
3580
1F80
7FC0
F060
FDF0
FDF0
FDF0
FDF0
FDF0
FDF0
F070
FFF0
FFE0
7FE0
3FC0
ENDCHAR
STARTCHAR uni020A
ENCODING 522
SWIDTH 578 0
DWIDTH 12 0
BBX 12 19 0 0
BITMAP
0600
1F80
3FC0
39C0
36C0
3FC0
7FC0
F060
FDF0
FDF0
FDF0
FDF0
FDF0
FDF0
F070
FFF0
FFE0
7FE0
3FC0
ENDCHAR
STARTCHAR uni020B
ENCODING 523
SWIDTH 578 0
DWIDTH 12 0
BBX 12 19 0 0
BITMAP
0600
1F80
3FC0
39C0
36C0
3FC0
7FC0
F060
FDF0
FDF0
FDF0
FDF0
FDF0
FDF0
F070
FFF0
FFE0
7FE0
3FC0
ENDCHAR
STARTCHAR uni020C
ENCODING 524
SWIDTH 578 0
DWIDTH 12 0
BBX 12 19 0 0
BITMAP
3E00
3F00
6B00
6F80
3580
1F80
7FC0
E060
EF70
EF70
EF70
EF70
EF70
E770
F0F0
FFF0
FFE0
7FE0
3FC0
ENDCHAR
STARTCHAR uni020D
ENCODING 525
SWIDTH 578 0
DWIDTH 12 0
BBX 12 19 0 0
BITMAP
3E00
3F00
6B00
6F80
3580
1F80
7FC0
E060
EF70
EF70
EF70
EF70
EF70
E770
F0F0
FFF0
FFE0
7FE0
3FC0
ENDCHAR
STARTCHAR uni020E
ENCODING 526
SWIDTH 578 0
DWIDTH 12 0
BBX 12 19 0 0
BITMAP
0600
1F80
3FC0
39C0
36C0
3FC0
7FC0
E060
EF70
EF70
EF70
EF70
EF70
E770
F0F0
FFF0
FFE0
7FE0
3FC0
ENDCHAR
STARTCHAR uni020F
ENCODING 527
SWIDTH 578 0
DWIDTH 12 0
BBX 12 19 0 0
BITMAP
0600
1F80
3FC0
39C0
36C0
3FC0
7FC0
E060
EF70
EF70
EF70
EF70
EF70
E770
F0F0
FFF0
FFE0
7FE0
3FC0
ENDCHAR
STARTCHAR uni0210
ENCODING 528
SWIDTH 578 0
DWIDTH 12 0
BBX 12 19 0 0
BITMAP
3E00
3F00
6B00
6F80
3580
1F80
7FC0
E060
EF70
EF70
E1F0
EE70
EF70
EF70
EF70
FFF0
FFE0
7FE0
3FC0
ENDCHAR
STARTCHAR uni0211
ENCODING 529
SWIDTH 578 0
DWIDTH 12 0
BBX 12 19 0 0
BITMAP
3E00
3F00
6B00
6F80
3580
1F80
7FC0
E060
EF70
EF70
E1F0
EE70
EF70
EF70
EF70
FFF0
FFE0
7FE0
3FC0
ENDCHAR
STARTCHAR uni0212
ENCODING 530
SWIDTH 578 0
DWIDTH 12 0
BBX 12 19 0 0
BITMAP
0600
1F80
3FC0
39C0
36C0
3FC0
7FC0
E060
EF70
EF70
E1F0
EE70
EF70
EF70
EF70
FFF0
FFE0
7FE0
3FC0
ENDCHAR
STARTCHAR uni0213
ENCODING 531
SWIDTH 578 0
DWIDTH 12 0
BBX 12 19 0 0
BITMAP
0600
1F80
3FC0
39C0
36C0
3FC0
7FC0
E060
EF70
EF70
E1F0
EE70
EF70
EF70
EF70
FFF0
FFE0
7FE0
3FC0
ENDCHAR
STARTCHAR uni0214
ENCODING 532
SWIDTH 578 0
DWIDTH 12 0
BBX 12 19 0 0
BITMAP
3E00
3F00
6B00
6F80
3580
1F80
7FC0
EF60
EF70
EF70
EF70
EF70
EF70
E770
F0F0
FFF0
FFE0
7FE0
3FC0
ENDCHAR
STARTCHAR uni0215
ENCODING 533
SWIDTH 578 0
DWIDTH 12 0
BBX 12 19 0 0
BITMAP
3E00
3F00
6B00
6F80
3580
1F80
7FC0
EF60
EF70
EF70
EF70
EF70
EF70
E770
F0F0
FFF0
FFE0
7FE0
3FC0
ENDCHAR
STARTCHAR uni0216
ENCODING 534
SWIDTH 578 0
DWIDTH 12 0
BBX 12 19 0 0
BITMAP
0600
1F80
3FC0
39C0
36C0
3FC0
7FC0
EF60
EF70
EF70
EF70
EF70
EF70
E770
F0F0
FFF0
FFE0
7FE0
3FC0
ENDCHAR
STARTCHAR uni0217
ENCODING 535
SWIDTH 578 0
DWIDTH 12 0
BBX 12 19 0 0
BITMAP
0600
1F80
3FC0
39C0
36C0
3FC0
7FC0
EF60
EF70
EF70
EF70
EF70
EF70
E770
F0F0
FFF0
FFE0
7FE0
3FC0
ENDCHAR
STARTCHAR uni0218
ENCODING 536
SWIDTH 578 0
DWIDTH 12 0
BBX 12 13 0 0
BITMAP
7FC0
E060
EFF0
EFF0
F070
FF70
FF70
F770
F2F0
FDF0
FDE0
7DE0
3FC0
ENDCHAR
STARTCHAR uni0219
ENCODING 537
SWIDTH 578 0
DWIDTH 12 0
BBX 12 13 0 0
BITMAP
7FC0
E060
EFF0
EFF0
F070
FF70
FF70
F770
F2F0
FDF0
FDE0
7DE0
3FC0
ENDCHAR
STARTCHAR uni021A
ENCODING 538
SWIDTH 578 0
DWIDTH 12 0
BBX 12 13 0 0
BITMAP
7FC0
F060
FDF0
FDF0
FDF0
FDF0
FDF0
FDF0
FFF0
FDF0
FDE0
7DE0
3FC0
ENDCHAR
STARTCHAR uni021B
ENCODING 539
SWIDTH 578 0
DWIDTH 12 0
BBX 12 13 0 0
BITMAP
7FC0
F060
FDF0
FDF0
FDF0
FDF0
FDF0
FDF0
FFF0
FDF0
FDE0
7DE0
3FC0
ENDCHAR
STARTCHAR circumflex
ENCODING 710
SWIDTH 355 0
DWIDTH 7 0
BBX 7 7 0 0
BITMAP
38
7C
7C
D6
D6
FE
FE
ENDCHAR
STARTCHAR caron
ENCODING 711
SWIDTH 355 0
DWIDTH 7 0
BBX 7 7 0 0
BITMAP
24
FE
D6
D6
FE
7C
7C
ENDCHAR
STARTCHAR breve
ENCODING 728
SWIDTH 428 0
DWIDTH 9 0
BBX 9 6 0 0
BITMAP
3C00
7F00
FF00
FB80
E300
7F00
ENDCHAR
STARTCHAR dotaccent
ENCODING 729
SWIDTH 428 0
DWIDTH 9 0
BBX 9 6 0 0
BITMAP
3C00
7F00
FF00
F780
FF00
7F00
ENDCHAR
STARTCHAR ring
ENCODING 730
SWIDTH 368 0
DWIDTH 7 0
BBX 7 6 0 0
BITMAP
7C
FE
D6
DE
E6
FE
ENDCHAR
STARTCHAR ogonek
ENCODING 731
SWIDTH 101 0
DWIDTH 2 0
BBX 2 3 0 -3
BITMAP
C0
80
C0
ENDCHAR
STARTCHAR tilde
ENCODING 732
SWIDTH 428 0
DWIDTH 9 0
BBX 9 6 0 0
BITMAP
7E00
FF00
FF80
CB80
D300
7F00
ENDCHAR
STARTCHAR hungarumlaut
ENCODING 733
SWIDTH 419 0
DWIDTH 8 0
BBX 8 7 0 0
BITMAP
3E
3F
6F
6B
DE
FE
FC
ENDCHAR
STARTCHAR uni030F
ENCODING 783
SWIDTH 419 0
DWIDTH 8 0
BBX 8 7 0 0
BITMAP
7C
7E
D6
FB
6F
3F
3F
ENDCHAR
STARTCHAR mu
ENCODING 956
SWIDTH 578 0
DWIDTH 12 0
BBX 12 13 0 0
BITMAP
7FC0
EF60
EF70
EF70
EF70
EF70
EF70
EF70
E8F0
FFF0
FFE0
7FE0
3FC0
ENDCHAR
STARTCHAR pi
ENCODING 960
SWIDTH 578 0
DWIDTH 12 0
BBX 12 13 0 0
BITMAP
7FC0
EF60
D0B0
F6F0
B6D0
B6D0
F6F0
D6B0
EF70
F9F0
FFE0
7FE0
3FC0
ENDCHAR
STARTCHAR uni1E60
ENCODING 7776
SWIDTH 578 0
DWIDTH 12 0
BBX 12 18 0 0
BITMAP
0F00
1FC0
3FE0
3DE0
3FE0
7FC0
E060
EFF0
EFF0
F070
FF70
FF70
F770
F0F0
FFF0
FFE0
7FE0
3FC0
ENDCHAR
STARTCHAR uni1E8E
ENCODING 7822
SWIDTH 578 0
DWIDTH 12 0
BBX 12 18 0 0
BITMAP
0F00
1FC0
3FC0
3DE0
3FC0
7FC0
F760
F6F0
FAF0
FAF0
F9F0
FDF0
FDF0
FDF0
FFF0
FFE0
7FE0
3FC0
ENDCHAR
STARTCHAR uni1E8F
ENCODING 7823
SWIDTH 578 0
DWIDTH 12 0
BBX 12 18 0 0
BITMAP
0F00
1FC0
3FC0
3DE0
3FC0
7FC0
F760
F6F0
FAF0
FAF0
F9F0
FDF0
FDF0
FDF0
FFF0
FFE0
7FE0
3FC0
ENDCHAR
STARTCHAR uni1EBC
ENCODING 7868
SWIDTH 578 0
DWIDTH 12 0
BBX 12 19 0 0
BITMAP
1F80
3FC0
3FE0
32E0
34C0
1FC0
7FC0
F060
F7F0
F7F0
F0F0
F7F0
F7F0
F7F0
F070
FFF0
FFE0
7FE0
3FC0
ENDCHAR
STARTCHAR uni1EF8
ENCODING 7928
SWIDTH 578 0
DWIDTH 12 0
BBX 12 19 0 0
BITMAP
1F80
3FC0
3FC0
32E0
34C0
1FC0
7FC0
F760
F6F0
FAF0
FAF0
F9F0
FDF0
FDF0
FDF0
FFF0
FFE0
7FE0
3FC0
ENDCHAR
STARTCHAR uni1EF9
ENCODING 7929
SWIDTH 578 0
DWIDTH 12 0
BBX 12 19 0 0
BITMAP
1F80
3FC0
3FC0
32E0
34C0
1FC0
7FC0
F760
F6F0
FAF0
FAF0
F9F0
FDF0
FDF0
FDF0
FFF0
FFE0
7FE0
3FC0
ENDCHAR
STARTCHAR endash
ENCODING 8211
SWIDTH 428 0
DWIDTH 9 0
BBX 9 13 0 0
BITMAP
7E00
FF00
FF80
C380
FF80
FF80
FF80
FF80
FF80
FF80
FF00
7F00
3E00
ENDCHAR
STARTCHAR emdash
ENCODING 8212
SWIDTH 428 0
DWIDTH 9 0
BBX 9 13 0 0
BITMAP
7E00
FF00
FF80
0000
FF80
FF80
FF80
FF80
FF80
FF80
FF00
7F00
3E00
ENDCHAR
STARTCHAR quoteleft
ENCODING 8216
SWIDTH 428 0
DWIDTH 9 0
BBX 9 13 0 0
BITMAP
7E00
FF00
F780
FF80
FF80
FF80
FF80
FF80
FF80
FF80
FF00
7F00
3E00
ENDCHAR
STARTCHAR quoteright
ENCODING 8217
SWIDTH 428 0
DWIDTH 9 0
BBX 9 13 0 0
BITMAP
7E00
F700
F780
FF80
FF80
FF80
FF80
FF80
FF80
FF80
FF00
7F00
3E00
ENDCHAR
STARTCHAR quotesinglbase
ENCODING 8218
SWIDTH 428 0
DWIDTH 9 0
BBX 9 13 0 0
BITMAP
7E00
FF00
FF80
FF80
FF80
FF80
FF80
F780
F780
F780
FF00
7F00
3E00
ENDCHAR
STARTCHAR quotedblleft
ENCODING 8220
SWIDTH 428 0
DWIDTH 9 0
BBX 9 13 0 0
BITMAP
7E00
FF00
EB80
FF80
FF80
FF80
FF80
FF80
FF80
FF80
FF00
7F00
3E00
ENDCHAR
STARTCHAR quotedblright
ENCODING 8221
SWIDTH 428 0
DWIDTH 9 0
BBX 9 13 0 0
BITMAP
7E00
FB00
EB80
FF80
FF80
FF80
FF80
FF80
FF80
FF80
FF00
7F00
3E00
ENDCHAR
STARTCHAR quotedblbase
ENCODING 8222
SWIDTH 428 0
DWIDTH 9 0
BBX 9 13 0 0
BITMAP
7E00
FF00
FF80
FF80
FF80
FF80
FF80
EB80
FB80
EB80
FF00
7F00
3E00
ENDCHAR
STARTCHAR dagger
ENCODING 8224
SWIDTH 578 0
DWIDTH 12 0
BBX 12 13 0 0
BITMAP
7FC0
FDE0
F8F0
FDF0
FDF0
FDF0
FDF0
FDF0
FDF0
FFF0
FFE0
7FE0
3FC0
ENDCHAR
STARTCHAR daggerdbl
ENCODING 8225
SWIDTH 578 0
DWIDTH 12 0
BBX 12 13 0 0
BITMAP
7FC0
FDE0
F8F0
FDF0
FDF0
FDF0
F8F0
FDF0
FDF0
FFF0
FFE0
7FE0
3FC0
ENDCHAR
STARTCHAR bullet
ENCODING 8226
SWIDTH 578 0
DWIDTH 12 0
BBX 12 13 0 0
BITMAP
7FC0
F8E0
E070
E070
E070
E070
E070
F070
FFF0
FFF0
FFE0
7FE0
3FC0
ENDCHAR
STARTCHAR ellipsis
ENCODING 8230
SWIDTH 578 0
DWIDTH 12 0
BBX 12 13 0 0
BITMAP
7FC0
FFE0
FFF0
FFF0
FFF0
FFF0
FFF0
EA70
EA70
FFF0
FFE0
7FE0
3FC0
ENDCHAR
STARTCHAR perthousand
ENCODING 8240
SWIDTH 640 0
DWIDTH 13 0
BBX 13 13 0 0
BITMAP
7FE0
8BF0
ABF8
8BF8
F7F8
F488
FBA8
EC88
FFF8
FFF8
FFF8
7FF0
3FE0
ENDCHAR
STARTCHAR guilsinglleft
ENCODING 8249
SWIDTH 578 0
DWIDTH 12 0
BBX 12 13 0 0
BITMAP
7FC0
FEE0
FDF0
FDF0
FBF0
FFF0
FBF0
FDF0
FEF0
FFF0
FFE0
7FE0
3FC0
ENDCHAR
STARTCHAR guilsinglright
ENCODING 8250
SWIDTH 578 0
DWIDTH 12 0
BBX 12 13 0 0
BITMAP
7FC0
FFE0
FBF0
FDF0
FDF0
FEF0
FDF0
FBF0
FBF0
FFF0
FFE0
7FE0
3FC0
ENDCHAR
STARTCHAR fraction
ENCODING 8260
SWIDTH 428 0
DWIDTH 9 0
BBX 9 13 0 0
BITMAP
7E00
F700
F780
F780
F780
F780
EF80
EF80
EF80
FF80
FF00
7F00
3E00
ENDCHAR
STARTCHAR Euro
ENCODING 8364
SWIDTH 578 0
DWIDTH 12 0
BBX 12 13 0 0
BITMAP
7FC0
E0E0
EFF0
C3F0
EFF0
C3F0
EFF0
E6F0
F0F0
FFF0
FFE0
7FE0
3FC0
ENDCHAR
STARTCHAR trademark
ENCODING 8482
SWIDTH 578 0
DWIDTH 12 0
BBX 12 13 0 0
BITMAP
7FC0
FFE0
FFF0
FFF0
FAF0
FAF0
FBF0
FFF0
FFF0
FFF0
FFE0
7FE0
3FC0
ENDCHAR
STARTCHAR product
ENCODING 8719
SWIDTH 578 0
DWIDTH 12 0
BBX 12 13 0 0
BITMAP
7FC0
EF60
D0B0
F6F0
B7D0
B0D0
F7F0
D7B0
EF70
F9F0
FFE0
7FE0
3FC0
ENDCHAR
STARTCHAR minus
ENCODING 8722
SWIDTH 428 0
DWIDTH 9 0
BBX 9 13 0 0
BITMAP
7E00
FF00
FF80
C380
FF80
FF80
FF80
FF80
FF80
FF80
FF00
7F00
3E00
ENDCHAR
STARTCHAR notequal
ENCODING 8800
SWIDTH 578 0
DWIDTH 12 0
BBX 12 13 0 0
BITMAP
7FC0
FCE0
FDF0
F9F0
E2F0
FBF0
F7F0
FFF0
FFF0
FFF0
FFE0
7FE0
3FC0
ENDCHAR
STARTCHAR uni2706
ENCODING 9990
SWIDTH 578 0
DWIDTH 12 0
BBX 12 13 0 0
BITMAP
7FC0
FAE0
FFF0
F7F0
EFF0
E7F0
F7F0
F2F0
F9F0
FFF0
FFE0
7FE0
3FC0
ENDCHAR
STARTCHAR uni2708
ENCODING 9992
SWIDTH 578 0
DWIDTH 12 0
BBX 12 13 0 0
BITMAP
7FC0
8620
8210
9290
8F10
8610
8410
8410
8410
8010
8610
4620
3FC0
ENDCHAR
STARTCHAR uniF6D6
ENCODING 63190
SWIDTH 419 0
DWIDTH 8 0
BBX 8 7 0 0
BITMAP
7C
7E
D6
FB
6F
3F
3F
ENDCHAR
STARTCHAR uFFFF2
ENCODING 1048562
SWIDTH 578 0
DWIDTH 12 0
BBX 12 13 0 0
BITMAP
7FC0
8420
8410
8410
8F10
9B90
A250
8610
8910
8010
8610
4620
3FC0
ENDCHAR
STARTCHAR uFFFF3
ENCODING 1048563
SWIDTH 578 0
DWIDTH 12 0
BBX 12 13 0 0
BITMAP
7FC0
8220
8B10
8B90
8610
8610
8B10
8B90
8210
8410
8010
4020
3FC0
ENDCHAR
STARTCHAR uFFFF4
ENCODING 1048564
SWIDTH 578 0
DWIDTH 12 0
BBX 12 13 0 0
BITMAP
7FC0
FFE0
F6F0
EF70
EF70
EF70
EF70
F0F0
FFF0
FFF0
FFE0
7FE0
3FC0
ENDCHAR
STARTCHAR uFFFF5
ENCODING 1048565
SWIDTH 578 0
DWIDTH 12 0
BBX 12 13 0 0
BITMAP
7FC0
F9E0
FFF0
EF70
F0F0
F9F0
FFF0
FFF0
FFF0
FFF0
F9E0
79E0
3FC0
ENDCHAR
STARTCHAR uFFFF6
ENCODING 1048566
SWIDTH 578 0
DWIDTH 12 0
BBX 12 13 0 0
BITMAP
7FC0
FFE0
FFF0
FBF0
F0F0
E670
FFF0
FBF0
F7F0
FFF0
F9E0
79E0
3FC0
ENDCHAR
STARTCHAR uFFFF8
ENCODING 1048568
SWIDTH 578 0
DWIDTH 12 0
BBX 12 13 0 0
BITMAP
7FC0
F9E0
F7F0
FCF0
FDF0
EB70
E070
E070
F0F0
FFF0
F9E0
79E0
3FC0
ENDCHAR
STARTCHAR uFFFF9
ENCODING 1048569
SWIDTH 578 0
DWIDTH 12 0
BBX 12 13 0 0
BITMAP
7FC0
8220
8B10
9290
9290
9090
9090
8F10
8010
8010
8010
4020
3FC0
ENDCHAR
STARTCHAR uFFFFB
ENCODING 1048571
SWIDTH 578 0
DWIDTH 12 0
BBX 12 13 0 0
BITMAP
7FC0
F9E0
FAF0
F6F0
FBF0
F1F0
E6F0
F9F0
FBF0
FFF0
FFE0
7FE0
3FC0
ENDCHAR
STARTCHAR uFFFFC
ENCODING 1048572
SWIDTH 578 0
DWIDTH 12 0
BBX 12 13 0 0
BITMAP
7FC0
E060
DFB0
E670
F9F0
FFF0
F9F0
FFF0
FFF0
FFF0
FFE0
7FE0
3FC0
ENDCHAR
STARTCHAR uFFFFD
ENCODING 1048573
SWIDTH 578 0
DWIDTH 12 0
BBX 12 13 0 0
BITMAP
7FC0
F1E0
E0F0
E070
E970
EBF0
F4F0
F9F0
FFF0
FFF0
F9E0
79E0
3FC0
ENDCHAR
STARTCHAR uFFFFE
ENCODING 1048574
SWIDTH 578 0
DWIDTH 12 0
BBX 12 13 0 0
BITMAP
7FC0
C620
DDB0
DDB0
E5B0
DDB0
C430
FFF0
FFF0
FFF0
FFE0
7FE0
3FC0
ENDCHAR
STARTCHAR uFFFFF
ENCODING 1048575
SWIDTH 578 0
DWIDTH 12 0
BBX 12 13 0 0
BITMAP
7FC0
8E20
9F10
9F90
9690
9690
8B10
8F10
8610
8010
8610
4620
3FC0
ENDCHAR
STARTCHAR .notdef
ENCODING -1
SWIDTH 1000 0
DWIDTH 20 0
BBX 1 1 0 0
BITMAP
00
ENDCHAR
STARTCHAR glyph1
ENCODING -1
SWIDTH 0 0
DWIDTH 0 0
BBX 1 1 0 0
BITMAP
00
ENDCHAR
ENDFONT
